<?xml version="1.0" encoding="UTF-8"?>
<!DOCTYPE svg PUBLIC "-//W3C//DTD SVG 1.1//EN" "http://www.w3.org/Graphics/SVG/1.1/DTD/svg11.dtd">
<!-- Creator: CorelDRAW -->
<svg xmlns="http://www.w3.org/2000/svg" xml:space="preserve" width="400mm" height="400mm" version="1.1" style="shape-rendering:geometricPrecision; text-rendering:geometricPrecision; image-rendering:optimizeQuality; fill-rule:evenodd; clip-rule:evenodd"
viewBox="0 0 40000 40000"
 xmlns:xlink="http://www.w3.org/1999/xlink"
 xmlns:xodm="http://www.corel.com/coreldraw/odm/2003">
 <defs>
  <style type="text/css">
   <![CDATA[
    .fil0 {fill:#060202}
   ]]>
  </style>
 </defs>
 <g id="Layer_x0020_1">
  <metadata id="CorelCorpID_0Corel-Layer"/>
  <path class="fil0" d="M12078.27 19867.49l11.52 0 0 -23.04 11.53 0 0 -23.05 11.53 0 0 -23.06 11.52 0 0 -23.05 11.53 0 0 -23.05 11.53 0 0 -34.58 11.52 0 0 -23.06 11.53 0 0 -23.04 11.53 0 0 -23.05 11.51 0 0 -23.06 11.53 0 0 -23.05 11.54 0 0 -34.58 11.51 0 0 -23.05 11.53 0 0 -23.06 11.53 0 0 -23.04 11.52 0 0 -23.05 11.53 0 0 -23.06 11.53 0 0 -34.58 11.52 0 0 -23.05 11.53 0 0 -23.05 11.53 0 0 -23.06 11.52 0 0 -23.05 11.53 0 0 -23.04 11.53 0 0 -34.58 11.51 0 0 -23.06 11.54 0 0 -23.05 11.53 0 0 -23.05 11.51 0 0 -23.06 11.53 0 0 -23.05 11.53 0 0 -34.57 11.52 0 0 -23.05 11.53 0 0 -23.06 11.53 0 0 -23.05 11.52 0 0 -23.05 11.53 0 0 -23.06 11.53 0 0 -34.58 11.52 0 0 -23.04 11.53 0 0 -23.05 11.53 0 0 -23.06 11.52 0 0 -23.05 11.53 0 0 -23.05 11.53 0 0 -34.58 11.51 0 0 -23.06 11.53 0 0 -23.05 11.53 0 0 -23.04 11.52 0 0 -23.06 11.53 0 0 -23.05 11.53 0 0 -23.05 11.52 0 0 -34.58 11.53 0 0 -23.06 11.53 0 0 -23.05 11.52 0 0 -23.04 11.53 0 0 -23.06 11.53 0 0 -23.05 11.52 0 0 -34.58 11.53 0 0 -23.05 11.53 0 0 -23.06 11.51 0 0 -23.05 11.53 0 0 -23.04 11.54 0 0 -23.07 11.51 0 0 -34.57 11.53 0 0 -23.05 11.53 0 0 -23.05 11.52 0 0 -23.06 11.53 0 0 -23.05 11.53 0 0 -23.04 11.52 0 0 -34.58 11.53 0 0 -23.06 11.53 0 0 -23.05 11.52 0 0 -23.05 11.53 0 0 -23.06 11.53 0 0 -23.05 11.51 0 0 -34.58 11.54 0 0 -23.04 11.53 0 0 -23.06 11.51 0 0 -23.05 11.53 0 0 -23.05 11.53 0 0 -23.06 11.52 0 0 -34.58 11.53 0 0 -23.05 11.53 0 0 -23.04 11.52 0 0 -23.06 11.53 0 0 -23.05 11.53 0 0 -23.05 11.53 0 0 -34.58 11.52 0 0 -23.06 11.53 0 0 -23.05 11.53 0 0 -23.04 11.52 0 0 -23.07 11.53 0 0 -23.04 11.53 0 0 -34.58 11.51 0 0 -23.05 11.53 0 0 -23.06 11.53 0 0 -23.05 11.52 0 0 -23.05 11.53 0 0 -23.06 11.53 0 0 -34.57 11.52 0 0 -23.05 11.53 0 0 -23.05 11.53 0 0 -23.06 11.52 0 0 -23.05 11.53 0 0 -23.05 11.53 0 0 -34.57 11.52 0 0 -23.06 11.53 0 0 -23.05 11.53 0 0 -23.05 11.51 0 0 -23.06 11.53 0 0 -23.05 11.54 0 0 -34.58 11.51 0 0 -23.04 11.53 0 0 -23.07 11.53 0 0 -23.04 11.52 0 0 -23.05 11.53 0 0 -23.06 11.53 0 0 -34.58 11.52 0 0 -23.05 11.53 0 0 -23.05 11.53 0 0 -23.06 11.52 0 0 -23.04 11.53 0 0 -23.06 11.53 0 0 -34.58 11.51 0 0 -23.05 11.54 0 0 -23.05 11.53 0 0 -23.06 11.51 0 0 -23.05 11.53 0 0 -23.04 11.53 0 0 -34.58 11.52 0 0 -23.06 11.53 0 0 -23.05 11.53 0 0 -23.05 11.52 0 0 -23.06 11.53 0 0 -23.05 11.53 0 0 -34.58 11.52 0 0 -23.04 11.53 0 0 -23.06 11.53 0 0 -23.05 11.52 0 0 -23.05 11.53 0 0 -23.06 11.53 0 0 -34.58 11.51 0 0 -23.05 11.53 0 0 -23.04 11.53 0 0 -23.06 11.52 0 0 -23.05 11.53 0 0 -23.05 11.53 0 0 -34.58 11.52 0 0 -23.06 11.53 0 0 -23.05 11.53 0 0 -23.04 11.52 0 0 -23.07 11.53 0 0 -23.04 11.53 0 0 -34.58 11.52 0 0 -23.05 11.53 0 0 -23.06 11.53 0 0 -23.05 11.51 0 0 -23.04 11.53 0 0 -23.07 11.54 0 0 -34.57 11.51 0 0 -23.05 11.53 0 0 -23.05 11.53 0 0 -23.06 11.52 0 0 -23.05 11.53 0 0 -23.05 11.53 0 0 -34.57 11.52 0 0 -23.06 11.53 0 0 -23.05 11.53 0 0 -23.05 11.52 0 0 -23.06 11.53 0 0 -23.05 11.53 0 0 -34.58 11.51 0 0 -23.04 11.54 0 0 -23.07 11.53 0 0 -23.04 11.51 0 0 -23.05 11.53 0 0 -23.06 11.53 0 0 -34.58 11.52 0 0 -23.05 11.53 0 0 -23.04 11.53 0 0 -23.07 11.52 0 0 -23.04 11.53 0 0 -23.05 11.53 0 0 -34.58 11.52 0 0 -23.06 11.53 0 0 -23.05 11.53 0 0 -23.05 11.52 0 0 -23.06 11.53 0 0 -23.04 11.53 0 0 -34.58 11.51 0 0 -23.05 11.53 0 0 -23.06 11.53 0 0 -23.05 11.52 0 0 -23.05 11.53 0 0 -23.06 11.53 0 0 -34.58 11.52 0 0 -23.04 11.53 0 0 -23.05 11.53 0 0 -23.06 11.52 0 0 -23.05 11.53 0 0 -23.05 11.53 0 0 -34.57 11.52 0 0 -23.07 11.53 0 0 -23.04 11.53 0 0 -23.05 11.51 0 0 -23.06 11.53 0 0 -23.05 11.54 0 0 -34.58 11.51 0 0 -11.53 461.05 0 0 11.53 11.53 0 0 46.11 11.52 0 0 23.05 11.53 0 0 46.11 11.53 0 0 46.09 11.51 0 0 57.64 11.53 0 0 23.05 11.53 0 0 57.62 11.52 0 0 46.11 11.53 0 0 46.11 11.53 0 0 23.05 11.52 0 0 57.63 11.53 0 0 46.1 11.53 0 0 23.05 11.52 0 0 46.11 11.53 0 0 46.11 11.53 0 0 57.62 11.52 0 0 23.05 11.53 0 0 57.64 11.53 0 0 34.58 11.51 0 0 57.63 11.53 0 0 23.04 11.54 0 0 57.64 11.51 0 0 46.1 11.53 0 0 23.06 11.53 0 0 46.09 11.52 0 0 46.11 11.53 0 0 57.63 11.53 0 0 23.06 11.52 0 0 57.62 11.53 0 0 34.58 11.53 0 0 57.63 11.52 0 0 23.06 11.53 0 0 57.63 11.53 0 0 46.1 11.51 0 0 46.1 11.54 0 0 23.06 11.53 0 0 46.1 11.51 0 0 57.63 11.53 0 0 23.05 11.53 0 0 57.63 11.52 0 0 46.11 11.53 0 0 46.11 11.53 0 0 23.04 11.52 0 0 57.63 11.53 0 0 46.11 11.53 0 0 46.11 11.52 0 0 23.04 11.53 0 0 46.11 11.53 0 0 57.63 11.52 0 0 23.05 11.53 0 0 57.63 11.53 0 0 34.58 11.51 0 0 57.63 11.53 0 0 23.06 11.53 0 0 57.63 11.52 0 0 46.1 11.53 0 0 46.1 11.53 0 0 23.06 11.52 0 0 46.1 11.53 0 0 57.63 11.53 0 0 23.05 11.52 0 0 46.11 11.53 0 0 46.1 11.53 0 0 57.63 11.52 0 0 23.05 11.53 0 0 57.63 11.53 0 0 46.11 11.51 0 0 46.11 11.53 0 0 23.04 11.54 0 0 57.63 11.51 0 0 46.11 11.53 0 0 23.05 11.53 0 0 46.1 11.52 0 0 46.11 11.53 0 0 57.63 11.53 0 0 23.05 11.52 0 0 57.63 11.53 0 0 46.1 11.53 0 0 46.11 11.52 0 0 23.05 11.53 0 0 57.64 11.53 0 0 46.09 11.51 0 0 23.06 11.54 0 0 46.1 11.53 0 0 46.11 11.51 0 0 57.62 11.53 0 0 23.06 11.53 0 0 57.63 11.52 0 0 34.58 11.53 0 0 57.62 11.53 0 0 23.06 11.52 0 0 57.63 11.53 0 0 46.11 11.53 0 0 23.04 11.52 0 0 46.11 11.53 0 0 46.1 11.53 0 0 57.64 11.52 0 0 23.05 11.53 0 0 57.62 11.53 0 0 46.11 11.51 0 0 46.11 11.53 0 0 23.05 11.53 0 0 57.62 11.52 0 0 46.11 11.53 0 0 46.11 11.53 0 0 23.05 11.52 0 0 46.11 11.53 0 0 57.62 11.53 0 0 23.05 11.52 0 0 57.64 11.53 0 0 34.58 11.53 0 0 57.62 11.52 0 0 23.05 11.53 0 0 57.64 11.53 0 0 46.09 11.51 0 0 46.11 11.53 0 0 23.05 11.54 0 0 46.11 11.51 0 0 57.62 11.53 0 0 23.07 -4218.53 0 0 -23.07zm4437.53 1613.66l11.52 0 0 34.58 11.53 0 0 46.09 11.53 0 0 46.11 11.52 0 0 46.11 11.53 0 0 34.58 11.53 0 0 46.09 11.51 0 0 46.11 11.54 0 0 46.11 11.53 0 0 34.58 11.51 0 0 46.09 11.53 0 0 46.11 11.53 0 0 46.11 11.52 0 0 34.58 11.53 0 0 46.09 11.53 0 0 46.11 11.52 0 0 34.58 11.53 0 0 46.11 11.53 0 0 46.09 11.52 0 0 46.11 11.53 0 0 34.58 11.53 0 0 46.11 11.52 0 0 46.1 11.53 0 0 46.1 11.53 0 0 34.58 11.51 0 0 46.11 11.53 0 0 46.1 11.53 0 0 34.57 11.52 0 0 46.11 11.53 0 0 46.11 11.53 0 0 46.1 11.52 0 0 34.57 11.53 0 0 46.11 11.53 0 0 46.11 11.52 0 0 46.1 11.53 0 0 34.58 11.53 0 0 46.1 11.52 0 0 46.11 11.53 0 0 46.1 11.53 0 0 34.58 11.51 0 0 46.1 11.53 0 0 46.11 11.54 0 0 34.58 11.51 0 0 46.1 11.53 0 0 46.11 11.53 0 0 46.1 11.52 0 0 34.58 11.53 0 0 46.1 11.53 0 0 46.11 11.52 0 0 46.1 11.53 0 0 34.58 11.53 0 0 46.1 11.52 0 0 46.11 11.53 0 0 34.57 11.53 0 0 46.11 11.51 0 0 46.1 11.54 0 0 46.11 11.53 0 0 34.58 11.51 0 0 46.1 11.53 0 0 46.1 11.53 0 0 46.11 11.52 0 0 34.58 11.53 0 0 46.1 11.53 0 0 46.1 11.52 0 0 46.11 11.53 0 0 34.58 11.53 0 0 46.11 11.52 0 0 46.1 11.53 0 0 34.58 11.53 0 0 46.1 11.52 0 0 46.11 11.53 0 0 46.1 11.53 0 0 34.58 11.51 0 0 46.1 11.53 0 0 46.11 11.53 0 0 46.1 11.54 0 0 34.58 11.51 0 0 46.1 11.53 0 0 46.11 11.53 0 0 34.58 11.52 0 0 46.1 11.53 0 0 46.1 11.53 0 0 46.11 11.52 0 0 34.58 11.53 0 0 46.1 11.53 0 0 46.1 11.52 0 0 46.11 11.53 0 0 34.58 11.53 0 0 46.1 11.51 0 0 46.1 11.54 0 0 46.11 11.53 0 0 34.58 11.51 0 0 46.11 11.53 0 0 46.09 11.53 0 0 34.58 11.52 0 0 46.11 11.53 0 0 46.11 11.53 0 0 46.09 11.52 0 0 34.58 11.53 0 0 46.11 11.53 0 0 46.11 11.52 0 0 46.09 11.53 0 0 34.58 11.53 0 0 46.11 11.52 0 0 23.05 11.53 0 0 57.64 11.53 0 0 23.04 11.51 0 0 46.11 11.53 0 0 57.63 11.53 0 0 0 11.52 0 0 0 11.53 0 0 0 11.53 0 0 0 11.52 0 0 0 1532.97 0 0 -57.63 -11.53 0 0 -23.06 -11.52 0 0 -57.63 -11.53 0 0 -34.57 -11.53 0 0 -57.63 -11.52 0 0 -23.06 -11.53 0 0 -46.1 -11.53 0 0 -57.63 -11.52 0 0 -23.05 -11.53 0 0 -46.11 -11.53 0 0 -57.63 -11.51 0 0 -23.04 -11.54 0 0 -57.64 -11.53 0 0 -46.1 -11.51 0 0 -23.06 -11.53 0 0 -57.63 -11.53 0 0 -46.1 -11.52 0 0 -23.05 -11.53 0 0 -57.63 -11.53 0 0 -46.11 -11.52 0 0 -23.04 -11.53 0 0 -46.11 -11.53 0 0 -46.11 -11.52 0 0 -57.63 -11.53 0 0 -23.04 -11.53 0 0 -46.11 -11.52 0 0 -57.63 -11.53 0 0 -23.06 -11.53 0 0 -46.09 -11.51 0 0 -57.64 -11.53 0 0 -23.05 -11.53 0 0 -57.63 -11.52 0 0 -46.11 -11.53 0 0 -23.04 -11.53 0 0 -57.64 -11.52 0 0 -46.1 -11.53 0 0 -23.06 -11.53 0 0 -57.62 -11.52 0 0 -46.11 -11.53 0 0 -46.1 -11.53 0 0 -23.06 -11.52 0 0 -46.09 -11.53 0 0 -57.64 -11.53 0 0 -23.05 -11.51 0 0 -46.11 -11.53 0 0 -57.63 -11.54 0 0 -23.06 -11.51 0 0 -46.09 -11.53 0 0 -57.64 -11.53 0 0 -23.05 -11.52 0 0 -57.62 -11.53 0 0 -46.11 -11.53 0 0 -23.05 -11.52 0 0 -57.64 -11.53 0 0 -46.09 -11.53 0 0 -23.07 -11.52 0 0 -57.62 -11.53 0 0 -34.58 -11.53 0 0 -57.63 -11.51 0 0 -23.06 -11.54 0 0 -46.09 -11.53 0 0 -57.64 -11.51 0 0 -23.05 -11.53 0 0 -46.11 -11.53 0 0 -57.62 -11.52 0 0 -23.05 -11.53 0 0 -46.11 -11.53 0 0 -57.62 -11.52 0 0 -23.07 -11.53 0 0 -57.62 -11.53 0 0 -46.11 -11.52 0 0 -23.05 -11.53 0 0 -57.62 -11.53 0 0 -46.11 -11.52 0 0 -23.05 -11.53 0 0 -57.64 -11.53 0 0 -34.58 -11.51 0 0 -57.62 -11.53 0 0 -23.05 -11.53 0 0 -46.11 -11.52 0 0 -57.62 -11.53 0 0 -23.07 -11.53 0 0 -46.09 -11.52 0 0 -57.64 -11.53 0 0 -23.05 -11.53 0 0 -46.11 -11.52 0 0 -57.62 -11.53 0 0 -23.05 -11.53 0 0 -57.64 -11.52 0 0 -46.09 -11.53 0 0 -23.07 -11.53 0 0 -57.62 -11.51 0 0 -46.11 -11.53 0 0 -23.05 -11.54 0 0 -57.62 -11.51 0 0 -34.58 -11.53 0 0 -57.64 -11.53 0 0 -23.05 -11.52 0 0 -46.11 -11.53 0 0 -57.62 -11.53 0 0 -23.05 -11.52 0 0 -46.11 -11.53 0 0 -57.62 -11.53 0 0 -23.07 -11.52 0 0 -57.62 -11.53 0 0 -46.11 -11.53 0 0 -23.05 -11.51 0 0 -57.62 -11.54 0 0 -46.11 -11.53 0 0 -23.05 -11.51 0 0 -57.64 -11.53 0 0 -46.09 -11.53 0 0 -23.06 -11.52 0 0 -46.1 -11.53 0 0 -46.11 -11.53 0 0 -57.62 -11.52 0 0 -23.07 -11.53 0 0 -46.09 -11.53 0 0 -57.64 -11.52 0 0 -23.05 -11.53 0 0 -46.11 -11.53 0 0 -57.62 -11.52 0 0 -23.05 -11.53 0 0 -57.64 -11.53 0 0 -46.09 -11.51 0 0 -23.06 -11.53 0 0 -57.63 -11.53 0 0 -46.11 -11.52 0 0 -23.05 -11.53 0 0 -57.62 -11.53 0 0 -34.58 -11.52 0 0 -57.64 -11.53 0 0 -23.05 -11.53 0 0 -46.11 -11.52 0 0 -57.62 -11.53 0 0 -23.05 -11.53 0 0 -46.11 -11.52 0 0 -57.62 -11.53 0 0 -23.06 -11.53 0 0 -46.1 -11.51 0 0 -57.64 -11.53 0 0 -23.05 -11.53 0 0 -57.62 -11.52 0 0 -46.11 -11.53 0 0 -23.05 -11.53 0 0 -57.64 -11.52 0 0 -46.09 -11.53 0 0 -23.06 -11.53 0 0 -57.63 -11.52 0 0 -34.58 -11.53 0 0 -57.62 -11.53 0 0 -23.06 -11.52 0 0 -46.1 -11.53 0 0 -57.64 -11.53 0 0 -23.05 -11.51 0 0 -46.11 -11.53 0 0 -57.62 -11.54 0 0 -23.05 -11.51 0 0 -46.11 -11.53 0 0 -57.62 -11.53 0 0 -23.06 -11.52 0 0 -57.63 -11.53 0 0 -46.11 -11.53 0 0 -23.05 -11.52 0 0 -57.62 -11.53 0 0 -46.11 -11.53 0 0 -23.05 -11.52 0 0 -57.64 -11.53 0 0 -34.58 -11.53 0 0 -57.62 -11.51 0 0 -23.05 -11.54 0 0 -46.11 -11.53 0 0 -57.62 -11.53 0 0 -23.06 -11.51 0 0 -46.1 -11.53 0 0 -57.64 -11.53 0 0 -23.05 -11.52 0 0 -57.62 -11.53 0 0 -46.11 -11.53 0 0 -23.05 -11.52 0 0 -57.64 -11.53 0 0 -46.09 -11.53 0 0 -23.06 -11.52 0 0 -57.63 -11.53 0 0 -46.11 -11.53 0 0 -23.05 -11.52 0 0 -46.1 -11.53 0 0 -46.1 -11.53 0 0 -57.64 -11.51 0 0 -23.05 -11.53 0 0 -46.1 -11.54 0 0 -57.63 -11.51 0 0 -23.05 -11.53 0 0 -46.11 -11.53 0 0 -57.62 -11.52 0 0 -23.06 -11.53 0 0 -57.63 -11.53 0 0 -46.11 -11.52 0 0 -23.05 -11.53 0 0 -57.62 -11.53 0 0 -46.11 -11.52 0 0 -23.05 -11.53 0 0 -57.64 -11.53 0 0 -34.57 -11.51 0 0 -57.63 -11.54 0 0 -23.05 -11.53 0 0 -46.11 -11.51 0 0 -57.62 -11.53 0 0 -23.06 -11.53 0 0 -46.1 -11.52 0 0 -57.64 -11.53 0 0 -23.04 -11.53 0 0 -46.11 -11.52 0 0 -57.63 -11.53 0 0 -23.05 -11.53 0 0 -57.64 -11.52 0 0 -46.1 -11.53 0 0 -23.05 -11.53 0 0 -57.63 -11.52 0 0 -46.11 -11.53 0 0 -23.04 -11.53 0 0 -57.64 -11.51 0 0 -34.58 -11.53 0 0 -57.63 -11.53 0 0 -23.04 -11.52 0 0 -46.11 -11.53 0 0 -57.63 -11.53 0 0 -23.06 -11.52 0 0 -46.1 -11.53 0 0 -57.63 -11.53 0 0 -23.05 -11.52 0 0 -46.11 -11.53 0 0 -57.63 -11.53 0 0 -23.04 -11.52 0 0 -57.64 -11.53 0 0 -46.1 -11.53 0 0 -23.06 -11.51 0 0 -57.63 -11.53 0 0 -46.1 -11.54 0 0 -23.05 -11.51 0 0 -57.63 -11.53 0 0 -34.58 -11.53 0 0 -57.63 -11.52 0 0 -23.05 -11.53 0 0 -46.11 -11.53 0 0 -57.63 -11.52 0 0 -23.04 -11.53 0 0 -46.11 -11.53 0 0 -57.63 -11.52 0 0 -23.06 -11.53 0 0 -57.63 -11.53 0 0 -46.1 -11.51 0 0 -23.05 -11.53 0 0 -57.63 -11.54 0 0 -46.11 -11.51 0 0 -23.04 -11.53 0 0 -57.64 -11.53 0 0 -46.1 -11.52 0 0 -23.06 -11.53 0 0 -46.09 -11.53 0 0 -46.11 -11.52 0 0 -57.63 -11.53 0 0 -23.06 -11.53 0 0 -46.09 -11.52 0 0 -57.64 -11.53 0 0 -23.05 -11.53 0 0 -46.11 -11.51 0 0 -57.63 -11.54 0 0 -23.04 -11.53 0 0 -57.64 -11.51 0 0 -46.1 -11.53 0 0 -23.06 -11.53 0 0 -57.62 -11.52 0 0 -46.11 -11.53 0 0 -23.05 -11.53 0 0 -57.63 -11.52 0 0 -34.57 -11.53 0 0 -57.64 -11.53 0 0 -23.05 -11.52 0 0 -46.11 -11.53 0 0 -57.63 -11.53 0 0 -23.04 -11.52 0 0 -46.11 -11.53 0 0 -57.63 -11.53 0 0 -23.06 -11.51 0 0 -46.09 -11.53 0 0 -57.64 -11.53 0 0 -23.05 -11.52 0 0 -57.63 -11.53 0 0 -46.11 -11.53 0 0 -23.04 -11.52 0 0 -57.64 -11.53 0 0 -46.1 -11.53 0 0 -34.58 -11.52 0 0 -11.53 -2362.84 0 0 23.05 -11.53 0 0 23.06 -11.52 0 0 23.05 -11.53 0 0 23.05 -11.53 0 0 23.06 -11.52 0 0 23.05 -11.53 0 0 34.57 -11.53 0 0 23.05 -11.51 0 0 23.06 -11.53 0 0 23.05 -11.54 0 0 23.05 -11.51 0 0 23.06 -11.53 0 0 34.58 -11.53 0 0 23.05 -11.52 0 0 23.04 -11.53 0 0 23.06 -11.53 0 0 23.05 -11.52 0 0 23.05 -11.53 0 0 34.58 -11.53 0 0 23.06 -11.52 0 0 23.05 -11.53 0 0 23.04 -11.53 0 0 23.06 -11.51 0 0 23.05 -11.54 0 0 34.58 -11.53 0 0 23.05 -11.51 0 0 23.06 -11.53 0 0 23.05 -11.53 0 0 23.04 -11.52 0 0 23.07 -11.53 0 0 34.57 -11.53 0 0 23.05 -11.52 0 0 23.05 -11.53 0 0 23.06 -11.53 0 0 23.05 -11.52 0 0 23.04 -11.53 0 0 34.58 -11.53 0 0 23.06 -11.52 0 0 23.05 -11.53 0 0 23.05 -11.53 0 0 23.06 -11.51 0 0 23.05 -11.53 0 0 34.58 -11.53 0 0 23.04 -11.52 0 0 23.06 -11.53 0 0 23.05 -11.53 0 0 23.05 -11.52 0 0 23.06 -11.53 0 0 34.58 -11.53 0 0 23.05 -11.53 0 0 23.04 -11.52 0 0 23.07 -11.53 0 0 23.04 -11.53 0 0 23.05 -11.52 0 0 34.58 -11.53 0 0 23.06 -11.53 0 0 23.05 -11.51 0 0 23.04 -11.53 0 0 23.07 -11.54 0 0 23.04 -11.51 0 0 34.58 -11.53 0 0 23.05 -11.53 0 0 23.06 -11.52 0 0 23.05 -11.53 0 0 23.05 -11.53 0 0 23.06 -11.52 0 0 34.57 -11.53 0 0 23.05 -11.53 0 0 23.05 -11.52 0 0 23.06 -11.53 0 0 23.05 -11.53 0 0 23.05 -11.51 0 0 34.57 -11.54 0 0 23.07 -11.53 0 0 23.04 -11.51 0 0 23.05 -11.53 0 0 23.06 -11.53 0 0 23.05 -11.52 0 0 34.58 -11.53 0 0 23.04 -11.53 0 0 23.07 -11.52 0 0 23.04 -11.53 0 0 23.05 -11.53 0 0 23.06 -11.52 0 0 23.05 -11.53 0 0 34.58 -11.53 0 0 23.05 -11.52 0 0 23.06 -11.53 0 0 23.04 -11.53 0 0 23.05 -11.51 0 0 23.06 -11.53 0 0 34.58 -11.53 0 0 23.05 -11.52 0 0 23.05 -11.53 0 0 23.06 -11.53 0 0 23.04 -11.52 0 0 23.05 -11.53 0 0 34.58 -11.53 0 0 23.06 -11.52 0 0 23.05 -11.53 0 0 23.05 -11.53 0 0 23.06 -11.52 0 0 23.05 -11.53 0 0 34.57 -11.53 0 0 23.05 -11.51 0 0 23.06 -11.53 0 0 23.05 -11.54 0 0 23.05 -11.51 0 0 23.06 -11.53 0 0 34.58 -11.53 0 0 23.04 -11.52 0 0 23.05 -11.53 0 0 23.06 -11.53 0 0 23.05 -11.52 0 0 23.05 -11.53 0 0 34.58 -11.53 0 0 23.06 -11.52 0 0 23.04 -11.53 0 0 23.05 -11.53 0 0 23.06 -11.51 0 0 23.05 -11.54 0 0 34.58 -11.53 0 0 23.05 -11.51 0 0 23.06 -11.53 0 0 23.05 -11.53 0 0 23.04 -11.52 0 0 23.06 -11.53 0 0 34.58 -11.53 0 0 23.05 -11.52 0 0 23.05 -11.53 0 0 23.06 -11.53 0 0 23.05 -11.52 0 0 23.06 -11.53 0 0 34.57 -11.53 0 0 23.05 -11.52 0 0 23.05 -11.53 0 0 23.06 -11.53 0 0 23.05 -11.51 0 0 23.05 -11.53 0 0 34.57 -11.53 0 0 23.07 -11.52 0 0 23.04 -11.53 0 0 23.05 -11.53 0 0 23.06 -11.52 0 0 23.05 -11.53 0 0 34.58 -11.53 0 0 23.05 -11.52 0 0 23.06 -11.53 0 0 23.04 -11.53 0 0 23.05 -11.52 0 0 23.06 -11.53 0 0 34.58 -11.53 0 0 23.05 -11.51 0 0 23.05 -11.53 0 0 23.06 -11.53 0 0 23.04 -11.52 0 0 23.05 -11.53 0 0 34.58 -11.53 0 0 23.06 -11.52 0 0 23.05 -11.53 0 0 23.05 -11.53 0 0 23.06 -11.52 0 0 23.04 -11.53 0 0 34.58 -11.53 0 0 23.05 -11.52 0 0 23.06 -11.53 0 0 23.05 -11.53 0 0 23.05 -11.51 0 0 23.06 -11.53 0 0 34.58 -11.54 0 0 23.04 -11.51 0 0 23.05 -11.53 0 0 23.06 -11.53 0 0 23.05 -11.52 0 0 23.05 -11.53 0 0 34.58 -11.53 0 0 23.06 -11.52 0 0 23.04 -11.53 0 0 23.05 -11.53 0 0 23.06 -11.52 0 0 23.05 -11.53 0 0 34.58 -11.53 0 0 23.05 -11.51 0 0 23.06 -11.54 0 0 23.04 -11.53 0 0 23.05 -11.51 0 0 23.06 -11.53 0 0 34.58 -11.53 0 0 23.05 -11.52 0 0 23.05 -11.53 0 0 23.06 -11.53 0 0 23.05 -11.52 0 0 23.04 -11.53 0 0 34.58 -11.53 0 0 23.06 -11.52 0 0 23.05 -11.53 0 0 23.05 -11.53 0 0 23.06 -11.52 0 0 23.05 -11.53 0 0 34.57 -11.53 0 0 23.05 -11.51 0 0 23.06 -11.53 0 0 23.05 -11.53 0 0 23.05 -11.52 0 0 23.06 -11.53 0 0 34.58 -11.53 0 0 23.04 -11.52 0 0 23.05 -11.53 0 0 23.06 -11.53 0 0 23.05 -11.52 0 0 23.05 -11.53 0 0 34.58 -11.53 0 0 23.06 -11.52 0 0 23.05 -11.53 0 0 23.04 -11.53 0 0 23.06 -11.51 0 0 23.05 -11.53 0 0 34.58 -11.54 0 0 23.05 -11.51 0 0 23.06 -11.53 0 0 23.05 -11.53 0 0 23.04 -11.52 0 0 23.06 -11.53 0 0 34.58 -11.53 0 0 23.05 -11.52 0 0 23.05 -11.53 0 0 23.06 -11.53 0 0 23.05 -11.52 0 0 23.04 -11.53 0 0 34.58 -11.53 0 0 23.06 -11.51 0 0 23.05 -11.54 0 0 23.05 -11.53 0 0 23.06 -11.51 0 0 23.05 -11.53 0 0 34.58 -11.53 0 0 23.04 -11.52 0 0 23.06 -11.53 0 0 23.05 -11.53 0 0 23.05 -11.52 0 0 23.06 -11.53 0 0 34.58 -11.53 0 0 23.05 -11.52 0 0 23.04 -11.53 0 0 23.06 -11.53 0 0 23.05 -11.52 0 0 23.05 -11.53 0 0 34.58 -11.53 0 0 23.06 -11.51 0 0 23.05 -11.53 0 0 23.04 -11.53 0 0 23.07 -11.52 0 0 23.04 -11.53 0 0 34.58 -11.53 0 0 23.05 -11.52 0 0 23.06 -11.53 0 0 23.05 -11.53 0 0 23.04 -11.52 0 0 23.07 -11.53 0 0 23.04 -11.53 0 0 34.58 -11.52 0 0 23.05 -11.53 0 0 23.06 -11.53 0 0 23.05 -11.51 0 0 23.05 -11.53 0 0 23.06 -11.54 0 0 34.57 -11.51 0 0 23.05 -11.53 0 0 23.05 -11.53 0 0 23.06 -11.52 0 0 23.05 -11.53 0 0 23.05 -11.53 0 0 34.57 -11.52 0 0 23.07 -11.53 0 0 23.04 -11.53 0 0 23.05 -11.52 0 0 23.06 -11.53 0 0 23.05 -11.53 0 0 34.58 -11.51 0 0 23.04 -11.54 0 0 23.07 -11.53 0 0 23.04 -11.51 0 0 23.05 -11.53 0 0 23.06 -11.53 0 0 34.58 -11.52 0 0 23.05 -11.53 0 0 23.05 -11.53 0 0 23.06 -11.52 0 0 23.04 -11.53 0 0 23.05 -11.53 0 0 34.58 -11.52 0 0 23.06 -11.53 0 0 23.05 -11.53 0 0 23.05 -11.52 0 0 23.06 -11.53 0 0 23.04 -11.53 0 0 34.58 -11.51 0 0 23.05 -11.53 0 0 23.06 -11.53 0 0 23.05 -11.52 0 0 23.05 -11.53 0 0 23.06 -11.53 0 0 34.58 -11.52 0 0 23.04 -11.53 0 0 23.05 -11.53 0 0 23.06 -11.52 0 0 23.05 -11.53 0 0 23.05 -11.53 0 0 34.58 -11.52 0 0 23.06 -11.53 0 0 23.04 -11.53 0 0 23.05 -11.51 0 0 23.06 -11.53 0 0 23.05 -11.53 0 0 34.58 -11.52 0 0 23.05 -11.53 0 0 23.06 -11.53 0 0 23.04 -11.52 0 0 23.05 -11.53 0 0 23.06 -11.53 0 0 34.58 -11.52 0 0 23.05 -11.53 0 0 23.05 -11.53 0 0 23.06 -11.52 0 0 23.05 -11.53 0 0 23.04 -11.53 0 0 34.58 -11.51 0 0 23.06 -11.53 0 0 23.05 -11.54 0 0 23.05 -11.51 0 0 23.06 -11.53 0 0 23.05 -11.53 0 0 34.57 -11.52 0 0 23.05 -11.53 0 0 23.06 -11.53 0 0 23.05 -11.52 0 0 23.05 -11.53 0 0 23.06 -11.53 0 0 34.58 -11.52 0 0 23.04 -11.53 0 0 23.05 -11.53 0 0 23.06 -11.51 0 0 23.05 -11.54 0 0 23.05 -11.53 0 0 34.58 -11.51 0 0 23.06 -11.53 0 0 23.05 -11.53 0 0 23.04 -11.52 0 0 23.06 -11.53 0 0 23.05 -11.53 0 0 34.58 -11.52 0 0 23.05 -11.53 0 0 23.06 -11.53 0 0 23.05 -11.52 0 0 23.04 -11.53 0 0 23.06 -11.53 0 0 34.58 -11.52 0 0 23.05 -11.53 0 0 23.05 -11.53 0 0 23.06 -11.51 0 0 23.05 -11.53 0 0 23.04 -11.53 0 0 34.58 -11.52 0 0 23.06 -11.53 0 0 23.05 -11.53 0 0 23.05 -11.52 0 0 23.06 -11.53 0 0 23.05 -11.53 0 0 34.58 -11.52 0 0 23.04 -11.53 0 0 23.06 -11.53 0 0 23.05 -11.52 0 0 23.05 -11.53 0 0 23.06 -11.53 0 0 34.58 -11.51 0 0 23.05 -11.53 0 0 23.04 -11.54 0 0 23.06 -11.51 0 0 23.05 -11.53 0 0 23.05 -11.53 0 0 34.58 -11.52 0 0 23.06 -11.53 0 0 23.05 -11.53 0 0 23.04 -11.52 0 0 23.07 -11.53 0 0 23.04 -11.53 0 0 34.58 -11.52 0 0 23.05 -11.53 0 0 23.06 -11.53 0 0 23.05 -11.51 0 0 23.04 -11.54 0 0 23.07 -11.53 0 0 34.57 -11.51 0 0 23.05 -11.53 0 0 23.05 -11.53 0 0 23.06 -11.52 0 0 23.05 -11.53 0 0 23.05 -11.53 0 0 34.57 -11.52 0 0 23.06 -11.53 0 0 23.05 -11.53 0 0 23.05 -11.52 0 0 23.06 -11.53 0 0 23.05 -11.53 0 0 34.58 -11.52 0 0 23.04 -11.53 0 0 23.07 -11.53 0 0 23.04 -11.51 0 0 23.05 -11.53 0 0 23.06 -11.53 0 0 34.58 -11.52 0 0 23.05 -11.53 0 0 23.04 -11.53 0 0 23.07 -11.52 0 0 23.04 -11.53 0 0 23.05 -11.53 0 0 34.58 -11.52 0 0 23.06 -11.53 0 0 23.05 -11.53 0 0 23.05 -11.52 0 0 23.06 -11.53 0 0 23.04 -11.53 0 0 34.58 -11.51 0 0 23.05 -11.53 0 0 23.06 -11.54 0 0 23.05 -11.53 0 0 23.05 -11.51 0 0 23.06 -11.53 0 0 23.04 -11.53 0 0 34.58 -11.52 0 0 23.06 -11.53 0 0 23.05 -11.53 0 0 23.05 -11.52 0 0 23.06 -11.53 0 0 23.05 -11.53 0 0 34.58 -11.52 0 0 23.04 -11.53 0 0 23.06 -11.53 0 0 23.05 -11.51 0 0 23.05 -11.54 0 0 23.06 -11.53 0 0 34.58 -11.51 0 0 23.05 -11.53 0 0 23.04 -11.53 0 0 23.06 -11.52 0 0 23.05 -11.53 0 0 23.05 -11.53 0 0 34.58 -11.52 0 0 23.06 -11.53 0 0 23.05 -11.53 0 0 23.04 -11.52 0 0 23.07 -11.53 0 0 23.04 -11.53 0 0 34.58 -11.52 0 0 23.05 -11.53 0 0 23.06 -11.53 0 0 23.05 -11.51 0 0 23.05 -11.53 0 0 23.06 -11.53 0 0 34.57 -11.52 0 0 23.05 -11.53 0 0 23.05 -11.53 0 0 23.06 -11.52 0 0 23.05 -11.53 0 0 23.05 -11.53 0 0 34.57 -11.52 0 0 23.06 -11.53 0 0 23.05 -11.53 0 0 23.05 -11.52 0 0 23.06 -11.53 0 0 23.05 -11.53 0 0 34.58 -11.51 0 0 23.04 -11.53 0 0 23.07 -11.54 0 0 23.04 -11.51 0 0 23.05 -11.53 0 0 23.06 -11.53 0 0 34.58 -11.52 0 0 23.05 -11.53 0 0 23.05 -11.53 0 0 23.06 -11.52 0 0 23.04 -11.53 0 0 23.05 -11.53 0 0 34.58 -11.52 0 0 23.06 -11.53 0 0 23.05 -11.53 0 0 23.05 -11.51 0 0 23.06 -11.54 0 0 23.04 -11.53 0 0 34.58 -11.51 0 0 23.05 -11.53 0 0 23.06 -11.53 0 0 23.05 -11.52 0 0 23.05 -11.53 0 0 23.06 -11.53 0 0 34.58 -11.52 0 0 23.04 -11.53 0 0 23.05 -11.53 0 0 23.06 -11.52 0 0 23.05 -11.53 0 0 23.05 -11.53 0 0 34.57 -11.52 0 0 23.07 -11.53 0 0 23.04 -11.53 0 0 23.05 -11.51 0 0 23.06 -11.53 0 0 23.05 -11.53 0 0 34.58 -11.52 0 0 23.05 -11.53 0 0 23.06 -11.53 0 0 23.04 -11.52 0 0 23.05 -11.53 0 0 23.06 -11.53 0 0 34.58 -11.52 0 0 23.05 -11.53 0 0 23.05 -11.53 0 0 23.06 -11.52 0 0 23.04 -11.53 0 0 23.05 -11.53 0 0 34.58 -11.51 0 0 23.06 -11.53 0 0 23.05 -11.54 0 0 23.05 -11.51 0 0 23.06 -11.53 0 0 23.05 -11.53 0 0 34.57 -11.52 0 0 23.05 -11.53 0 0 23.06 -11.53 0 0 23.05 -11.52 0 0 23.05 -11.53 0 0 23.06 -11.53 0 0 34.58 -11.52 0 0 23.04 -11.53 0 0 23.05 -11.53 0 0 23.06 -11.51 0 0 23.05 -11.54 0 0 23.05 -11.53 0 0 34.58 -11.51 0 0 23.06 -11.53 0 0 23.04 -11.53 0 0 23.05 -11.52 0 0 23.06 -11.53 0 0 23.05 -11.53 0 0 34.58 -11.52 0 0 23.05 -11.53 0 0 23.06 -11.53 0 0 23.05 -11.52 0 0 23.04 -11.53 0 0 23.06 -11.53 0 0 34.58 -11.52 0 0 23.05 -11.53 0 0 23.05 -11.53 0 0 23.06 -11.51 0 0 23.05 -11.53 0 0 23.04 -11.53 0 0 34.58 -11.52 0 0 23.06 -11.53 0 0 23.05 -11.53 0 0 23.05 749.2 0 0 -11.52 622.41 0 0 -11.53 11.51 0 0 -23.05 11.53 0 0 -23.06 11.53 0 0 -23.05 11.52 0 0 -23.04 11.53 0 0 -34.58 11.53 0 0 -23.06 11.52 0 0 -23.05 11.53 0 0 -23.05 11.53 0 0 -23.06 11.52 0 0 -23.05 11.53 0 0 -23.04 11.53 0 0 -34.58 11.51 0 0 -23.06 11.53 0 0 -23.05 11.54 0 0 -23.05 11.53 0 0 -23.06 11.51 0 0 -23.05 11.53 0 0 -34.58 11.53 0 0 -23.04 11.52 0 0 -23.06 11.53 0 0 -23.05 11.53 0 0 -23.05 11.52 0 0 -23.06 11.53 0 0 -34.58 11.53 0 0 -23.05 11.52 0 0 -23.04 11.53 0 0 -23.06 11.53 0 0 -23.05 11.52 0 0 -23.05 11.53 0 0 -34.58 11.53 0 0 -23.06 11.51 0 0 -23.05 11.53 0 0 -23.04 11.53 0 0 -23.07 11.52 0 0 -23.04 11.53 0 0 -34.58 11.53 0 0 -23.05 11.52 0 0 -23.06 11.53 0 0 -23.05 11.53 0 0 -23.04 11.52 0 0 -23.07 11.53 0 0 -34.57 11.53 0 0 -23.05 11.52 0 0 -23.05 11.53 0 0 -23.06 11.53 0 0 -23.05 11.51 0 0 -23.05 11.53 0 0 -34.57 11.54 0 0 -23.06 11.51 0 0 -23.05 11.53 0 0 -23.05 11.53 0 0 -23.06 11.52 0 0 -23.05 11.53 0 0 -34.58 11.53 0 0 -23.04 11.52 0 0 -23.07 11.53 0 0 -23.04 11.53 0 0 -23.05 11.52 0 0 -23.06 11.53 0 0 -34.58 11.53 0 0 -23.05 11.51 0 0 -23.04 11.54 0 0 -23.07 11.53 0 0 -23.04 11.51 0 0 -23.05 11.53 0 0 -34.58 11.53 0 0 -23.06 11.52 0 0 -23.05 11.53 0 0 -23.05 11.53 0 0 -23.06 11.52 0 0 -23.04 11.53 0 0 -34.58 11.53 0 0 -23.05 11.52 0 0 -23.06 11.53 0 0 -23.05 11.53 0 0 -23.05 11.52 0 0 -23.06 11.53 0 0 -34.57 11.53 0 0 -23.05 11.51 0 0 -23.05 11.53 0 0 -23.06 11.53 0 0 -23.05 11.52 0 0 -23.05 11.53 0 0 -34.57 11.53 0 0 -23.07 11.52 0 0 -23.04 11.53 0 0 -23.05 11.53 0 0 -23.06 11.52 0 0 -23.05 11.53 0 0 -34.58 11.53 0 0 -23.05 11.52 0 0 -23.06 11.53 0 0 -23.04 11.53 0 0 -23.05 11.51 0 0 -23.06 11.53 0 0 -34.58 11.54 0 0 -23.05 11.51 0 0 -23.05 11.53 0 0 -23.06 11.53 0 0 -23.04 11.52 0 0 -23.05 11.53 0 0 -34.58 11.53 0 0 -23.06 11.52 0 0 -23.05 11.53 0 0 -23.05 11.53 0 0 -23.06 11.52 0 0 -23.04 11.53 0 0 -34.58 11.53 0 0 -23.05 11.51 0 0 -23.06 11.54 0 0 -23.05 11.53 0 0 -23.05 11.51 0 0 -23.06 11.53 0 0 -34.58 11.53 0 0 -23.04 11.52 0 0 -23.05 11.53 0 0 -23.06 11.53 0 0 -23.05 11.52 0 0 -23.05 11.53 0 0 -34.58 11.53 0 0 -23.06 11.52 0 0 -23.04 11.53 0 0 -23.05 11.53 0 0 -23.06 11.52 0 0 -23.05 11.53 0 0 -34.58 11.53 0 0 -23.05 11.51 0 0 -23.06 11.53 0 0 -23.04 11.53 0 0 -23.05 11.52 0 0 -23.06 11.53 0 0 -34.58 11.53 0 0 -23.05 11.52 0 0 -23.06 11.53 0 0 -23.05 11.53 0 0 -23.05 11.52 0 0 -23.06 11.53 0 0 -34.57 11.53 0 0 -23.05 11.52 0 0 -23.05 11.53 0 0 -23.06 11.53 0 0 -23.05 11.51 0 0 -23.05 11.53 0 0 -34.57 11.53 0 0 -23.07 11.52 0 0 -23.04 11.53 0 0 -23.05 11.53 0 0 -23.06 11.52 0 0 -23.05 11.53 0 0 -34.58 11.53 0 0 -23.04 11.52 0 0 -23.07 11.53 0 0 -23.04 11.53 0 0 -23.05 11.52 0 0 -23.06 11.53 0 0 -34.58 11.53 0 0 -23.05 11.51 0 0 -23.05 11.53 0 0 -23.06 11.54 0 0 -23.04 11.51 0 0 -23.05 11.53 0 0 -34.58 11.53 0 0 -23.06 11.52 0 0 -23.05 11.53 0 0 -23.05 11.53 0 0 -23.06 11.52 0 0 -23.04 11.53 0 0 -34.58 11.53 0 0 -23.05 11.52 0 0 -23.06 11.53 0 0 -23.05 11.53 0 0 -23.05 11.51 0 0 -23.06 11.54 0 0 -34.58 11.53 0 0 -23.04 11.51 0 0 -23.05 11.53 0 0 -23.06 11.53 0 0 -23.05 11.52 0 0 -23.05 11.53 0 0 -23.06 11.53 0 0 -34.58 11.52 0 0 -23.04 11.53 0 0 -23.05 11.53 0 0 -23.06 11.52 0 0 -23.05 11.53 0 0 -23.05 11.53 0 0 -34.58 11.52 0 0 -23.06 11.53 0 0 -23.04 11.53 0 0 -23.05 11.51 0 0 -23.06 11.53 0 0 -23.05 11.53 0 0 -34.58 11.52 0 0 -23.05 11.53 0 0 -23.06 11.53 0 0 -23.05 11.52 0 0 -23.04 11.53 0 0 -23.06 11.53 0 0 -34.58 11.52 0 0 -23.05 11.53 0 0 -23.05 11.53 0 0 -23.06 11.52 0 0 -23.05 11.53 0 0 -23.04 11.53 0 0 -34.58 11.51 0 0 -23.06 11.53 0 0 -23.05 11.54 0 0 -23.05 11.51 0 0 -23.06 11.53 0 0 -23.05 11.53 0 0 -34.57 11.52 0 0 -23.05 11.53 0 0 -23.06 11.53 0 0 -23.05 11.52 0 0 -23.05 11.53 0 0 -23.06 11.53 0 0 -34.58 11.52 0 0 -23.05 11.53 0 0 -23.04 11.53 0 0 -23.06 11.51 0 0 -23.05 11.54 0 0 -23.05 11.53 0 0 -34.58 11.51 0 0 -23.06 11.53 0 0 -23.05 11.53 0 0 -23.04 11.52 0 0 -23.06 11.53 0 0 -23.05 11.53 0 0 -34.58 11.52 0 0 -23.05 11.53 0 0 -23.06 11.53 0 0 -23.05 11.52 0 0 -23.04 11.53 0 0 -23.07 11.53 0 0 -34.57 11.52 0 0 -23.05 11.53 0 0 -23.05 11.53 0 0 -23.06 11.51 0 0 -23.05 11.53 0 0 -23.04 11.53 0 0 -34.58 11.52 0 0 -23.06 11.53 0 0 -23.05 11.53 0 0 -23.05 11.52 0 0 -23.06 11.53 0 0 -23.05 11.53 0 0 -34.58 11.52 0 0 -23.04 11.53 0 0 -23.06 11.53 0 0 -23.05 11.52 0 0 -23.05 11.53 0 0 -23.06 11.53 0 0 -23.05 5059.93 0 0 253.58z"/>
  <path class="fil0" d="M27857.44 26737.02l103.73 0 0 599.36 -103.73 0 0 -599.36zm-1671.28 495.63l103.73 0 0 103.73 -103.73 0 0 -103.73zm472.56 92.2l0 11.53 -195.94 0 0 -599.36 195.94 0 0 11.53 23.06 0 0 11.52 23.05 0 0 11.53 11.53 0 0 11.53 11.52 0 0 11.52 11.53 0 0 23.06 11.53 0 0 437.99 -11.53 0 0 23.04 -11.53 0 0 11.53 -11.52 0 0 11.53 -11.53 0 0 11.52 -23.05 0 0 11.53 -23.06 0zm2074.69 11.53l-92.21 0 0 -599.36 80.69 0 0 23.05 11.52 0 0 23.06 11.53 0 0 34.58 11.53 0 0 34.58 11.51 0 0 34.58 11.53 0 0 34.57 11.54 0 0 34.58 11.51 0 0 23.05 11.53 0 0 34.58 11.53 0 0 34.58 11.52 0 0 34.57 11.53 0 0 -345.78 92.2 0 0 599.36 -80.67 0 0 -23.06 -11.53 0 0 -34.58 -11.53 0 0 -34.58 -11.52 0 0 -23.04 -11.53 0 0 -34.58 -11.53 0 0 -34.58 -11.51 0 0 -23.05 -11.54 0 0 -34.57 -11.53 0 0 -34.58 -11.51 0 0 -34.58 -11.53 0 0 -23.06 -11.53 0 0 334.26zm-461.04 -484.09l-11.53 0 0 368.83 11.53 0 0 11.53 57.63 0 0 -11.53 11.53 0 0 -11.53 11.52 0 0 -103.74 -46.1 0 0 -92.2 138.31 0 0 242.05 -11.53 0 0 23.04 -11.53 0 0 11.53 -11.51 0 0 11.53 -11.53 0 0 11.52 -11.54 0 0 11.53 -34.57 0 0 11.53 -103.74 0 0 -11.53 -23.05 0 0 -11.53 -23.04 0 0 -11.52 -11.53 0 0 -11.53 -11.53 0 0 -11.53 -11.52 0 0 -34.58 -11.53 0 0 -414.93 11.53 0 0 -23.05 11.52 0 0 -23.05 11.53 0 0 -11.53 11.53 0 0 -11.53 23.04 0 0 -11.52 23.05 0 0 -11.53 103.74 0 0 11.53 34.57 0 0 11.52 11.54 0 0 11.53 11.53 0 0 11.53 11.51 0 0 23.05 11.53 0 0 23.05 11.53 0 0 103.73 -103.73 0 0 -80.67 -11.53 0 0 -11.53 -57.63 0 0 11.53zm-1221.76 138.31l138.31 0 0 92.2 -138.31 0 0 149.85 161.36 0 0 103.73 -265.1 0 0 -599.36 265.1 0 0 103.74 -161.36 0 0 149.84zm461.04 -149.84l-11.53 0 0 11.53 -11.53 0 0 92.2 11.53 0 0 11.53 11.53 0 0 11.52 23.05 0 0 11.53 23.05 0 0 11.53 11.53 0 0 11.52 23.05 0 0 11.53 23.06 0 0 11.53 11.52 0 0 11.52 11.53 0 0 11.53 11.53 0 0 11.53 11.51 0 0 23.04 11.53 0 0 172.9 -11.53 0 0 23.04 -11.51 0 0 11.53 -11.53 0 0 11.53 -11.53 0 0 11.52 -11.52 0 0 11.53 -23.06 0 0 11.53 -115.25 0 0 -11.53 -23.06 0 0 -11.53 -23.05 0 0 -11.52 -11.53 0 0 -11.53 -11.52 0 0 -23.04 -11.53 0 0 -23.07 -11.53 0 0 -80.67 103.73 0 0 57.63 11.53 0 0 11.53 69.16 0 0 -23.06 11.53 0 0 -92.21 -11.53 0 0 -11.53 -11.53 0 0 -11.51 -23.05 0 0 -11.54 -11.53 0 0 -11.53 -23.05 0 0 -11.51 -23.04 0 0 -11.53 -23.06 0 0 -11.53 -11.52 0 0 -11.52 -11.53 0 0 -11.53 -11.53 0 0 -11.53 -11.52 0 0 -11.52 -11.53 0 0 -23.06 -11.53 0 0 -149.83 11.53 0 0 -23.06 11.53 0 0 -11.52 11.52 0 0 -11.53 11.53 0 0 -11.53 11.53 0 0 -11.52 23.05 0 0 -11.53 115.26 0 0 11.53 34.58 0 0 11.52 11.52 0 0 11.53 11.53 0 0 11.53 11.53 0 0 11.52 11.51 0 0 23.06 11.53 0 0 103.73 -103.73 0 0 -69.15 -11.53 0 0 -11.53 -11.52 0 0 -11.53 -34.58 0 0 11.53zm2731.68 -10857.55l11.51 0 0 23.07 11.53 0 0 11.51 11.53 0 0 23.06 11.52 0 0 23.05 11.53 0 0 23.05 11.53 0 0 23.06 11.52 0 0 23.05 11.53 0 0 23.04 11.53 0 0 23.07 11.52 0 0 23.04 11.53 0 0 23.05 11.53 0 0 23.06 11.53 0 0 34.58 11.52 0 0 23.05 11.53 0 0 34.58 11.53 0 0 34.57 11.51 0 0 23.05 11.53 0 0 23.06 11.53 0 0 46.1 11.52 0 0 34.58 11.53 0 0 46.1 11.53 0 0 34.58 11.52 0 0 46.11 11.53 0 0 57.63 11.53 0 0 57.62 11.52 0 0 80.69 11.53 0 0 92.22 11.53 0 0 80.67 11.52 0 0 507.15 -11.52 0 0 126.79 -11.53 0 0 57.62 -11.53 0 0 92.22 -11.52 0 0 46.1 -11.53 0 0 46.1 -11.53 0 0 57.63 -11.52 0 0 46.11 -11.53 0 0 23.05 -11.53 0 0 46.1 -11.52 0 0 34.58 -11.53 0 0 34.58 -11.53 0 0 34.58 -11.51 0 0 34.58 -11.53 0 0 34.57 -11.53 0 0 23.05 -11.52 0 0 23.06 -11.53 0 0 34.58 -11.53 0 0 23.05 -11.53 0 0 23.05 -11.52 0 0 23.06 -11.53 0 0 23.05 -11.53 0 0 23.04 -11.52 0 0 23.06 -11.53 0 0 23.05 -11.53 0 0 23.05 -11.52 0 0 23.06 -11.53 0 0 23.05 -11.53 0 0 23.05 -11.51 0 0 11.53 -11.53 0 0 23.04 -11.54 0 0 11.53 -11.51 0 0 23.05 -11.53 0 0 23.06 -11.53 0 0 11.52 -11.52 0 0 23.06 -11.53 0 0 11.52 -11.53 0 0 23.06 -11.52 0 0 11.52 -11.53 0 0 11.53 -11.53 0 0 23.04 -11.52 0 0 11.53 -11.53 0 0 11.54 -11.53 0 0 23.04 -11.51 0 0 11.53 -11.54 0 0 11.52 -11.53 0 0 23.06 -11.51 0 0 11.52 -11.53 0 0 11.53 -11.53 0 0 11.53 -11.52 0 0 11.52 -11.53 0 0 11.53 -11.53 0 0 23.04 -11.52 0 0 11.54 -11.53 0 0 11.53 -11.53 0 0 11.51 -11.52 0 0 11.53 -11.53 0 0 11.53 -11.53 0 0 11.52 -11.52 0 0 11.53 -11.53 0 0 11.53 -11.53 0 0 11.52 -11.51 0 0 11.53 -11.53 0 0 11.53 -11.53 0 0 11.52 -11.52 0 0 11.53 -11.53 0 0 11.53 -11.53 0 0 11.52 -11.52 0 0 11.53 -11.53 0 0 11.53 -11.53 0 0 11.51 -11.52 0 0 11.53 -23.06 0 0 11.53 -11.52 0 0 11.52 -11.53 0 0 11.53 -11.53 0 0 11.53 -11.51 0 0 11.52 -23.07 0 0 11.53 -11.51 0 0 11.53 -11.53 0 0 11.52 -11.53 0 0 11.53 -23.05 0 0 11.53 -11.53 0 0 11.52 -23.05 0 0 11.53 -11.53 0 0 11.53 -23.05 0 0 11.51 -11.53 0 0 11.53 -11.51 0 0 11.54 -23.07 0 0 11.51 -11.51 0 0 11.53 -23.06 0 0 11.53 -23.05 0 0 11.52 -11.53 0 0 11.53 -23.05 0 0 11.53 -23.05 0 0 11.52 -11.53 0 0 11.53 -23.05 0 0 11.53 -23.06 0 0 11.52 -23.04 0 0 11.53 -23.05 0 0 11.53 -23.06 0 0 11.51 -23.05 0 0 11.54 -23.05 0 0 11.53 -11.53 0 0 11.51 -23.05 0 0 11.53 -34.57 0 0 11.53 -23.07 0 0 11.52 -23.04 0 0 11.53 -34.58 0 0 11.53 -23.05 0 0 11.52 -34.58 0 0 11.53 -23.06 0 0 11.53 -34.58 0 0 11.52 -34.57 0 0 11.53 -34.58 0 0 11.53 -34.58 0 0 11.52 -34.58 0 0 11.53 -34.58 0 0 11.53 -34.57 0 0 11.51 -46.1 0 0 11.53 -46.11 0 0 11.53 -46.11 0 0 11.52 -57.62 0 0 11.53 -57.63 0 0 11.53 -34.58 0 0 11.52 -80.68 0 0 11.53 -34.58 0 0 11.53 -80.69 0 0 11.52 -80.67 0 0 11.53 -69.16 0 0 11.53 -46.11 0 0 11.52 -115.26 0 0 11.53 -92.2 0 0 11.53 -161.36 0 0 11.51 -103.74 0 0 11.53 -311.2 0 0 11.54 -5739.98 0 0 11.51 -11.53 0 0 34.58 -11.52 0 0 57.64 -11.53 0 0 23.05 -11.53 0 0 57.62 -11.52 0 0 34.58 -11.53 0 0 57.64 -11.53 0 0 23.05 -11.52 0 0 57.62 -11.53 0 0 46.11 -11.53 0 0 46.11 -11.51 0 0 23.05 -11.53 0 0 46.11 -11.54 0 0 57.62 -11.51 0 0 23.05 -11.53 0 0 46.11 -11.53 0 0 46.11 -11.52 0 0 57.62 -11.53 0 0 23.05 -11.53 0 0 57.64 -11.52 0 0 34.58 -11.53 0 0 57.62 -11.53 0 0 23.05 -11.52 0 0 57.64 -11.53 0 0 46.1 -11.53 0 0 46.1 -11.51 0 0 23.05 -11.54 0 0 46.11 -11.53 0 0 57.63 -11.51 0 0 23.06 -11.53 0 0 46.09 -11.53 0 0 46.11 6431.54 0 0 23.05 11.53 0 0 34.58 11.52 0 0 23.06 11.53 0 0 23.05 11.53 0 0 23.04 11.51 0 0 23.06 11.53 0 0 23.05 11.54 0 0 34.58 11.51 0 0 23.05 11.53 0 0 23.06 11.53 0 0 23.05 11.52 0 0 23.04 11.53 0 0 23.07 11.53 0 0 34.57 11.52 0 0 23.05 11.53 0 0 23.05 11.53 0 0 23.06 11.52 0 0 23.05 11.53 0 0 23.04 11.53 0 0 34.58 11.51 0 0 23.06 11.54 0 0 23.05 11.53 0 0 23.05 11.51 0 0 23.06 11.53 0 0 23.05 11.53 0 0 34.58 11.52 0 0 23.04 11.53 0 0 23.06 11.53 0 0 23.05 11.52 0 0 23.05 11.53 0 0 23.06 11.53 0 0 34.58 11.52 0 0 23.05 11.53 0 0 23.04 11.53 0 0 23.07 11.52 0 0 23.04 11.53 0 0 23.05 11.53 0 0 34.58 11.51 0 0 23.06 11.53 0 0 23.05 11.53 0 0 23.04 11.52 0 0 23.07 11.53 0 0 23.04 11.53 0 0 34.58 11.52 0 0 23.05 11.53 0 0 23.06 11.53 0 0 23.05 11.52 0 0 23.05 11.53 0 0 23.06 11.53 0 0 34.57 11.52 0 0 23.05 11.53 0 0 23.05 11.53 0 0 23.06 11.51 0 0 23.05 11.53 0 0 23.05 11.54 0 0 34.57 11.51 0 0 23.07 11.53 0 0 23.04 11.53 0 0 23.05 11.52 0 0 23.06 11.53 0 0 23.05 11.53 0 0 34.58 11.52 0 0 23.04 11.53 0 0 23.07 11.53 0 0 23.04 11.52 0 0 23.05 11.53 0 0 23.06 11.53 0 0 34.58 11.51 0 0 23.05 11.54 0 0 23.05 11.53 0 0 23.06 11.51 0 0 23.04 11.53 0 0 23.05 11.53 0 0 23.06 11.52 0 0 34.58 11.53 0 0 23.05 11.53 0 0 23.05 11.52 0 0 23.06 11.53 0 0 23.04 11.53 0 0 23.05 11.52 0 0 34.58 11.53 0 0 23.06 11.53 0 0 23.05 11.52 0 0 23.05 11.53 0 0 23.06 11.53 0 0 23.05 11.51 0 0 34.57 11.53 0 0 23.05 11.53 0 0 23.06 11.52 0 0 23.05 11.53 0 0 23.05 11.53 0 0 23.06 11.52 0 0 34.58 11.53 0 0 23.04 11.53 0 0 23.05 11.52 0 0 23.06 11.53 0 0 23.05 11.53 0 0 23.05 11.52 0 0 34.58 11.53 0 0 23.06 11.53 0 0 23.04 11.51 0 0 23.05 11.53 0 0 23.06 11.54 0 0 23.05 11.51 0 0 34.58 11.53 0 0 23.05 11.53 0 0 23.06 11.52 0 0 23.05 11.53 0 0 23.04 11.53 0 0 23.06 11.52 0 0 34.58 11.53 0 0 23.05 11.53 0 0 23.05 11.52 0 0 23.06 11.53 0 0 23.05 11.53 0 0 23.04 11.51 0 0 34.58 11.53 0 0 23.06 11.54 0 0 23.05 11.51 0 0 23.05 11.53 0 0 23.06 11.53 0 0 23.05 11.52 0 0 34.57 11.53 0 0 23.07 11.53 0 0 23.04 11.52 0 0 23.05 11.53 0 0 23.06 11.53 0 0 23.05 11.52 0 0 34.58 11.53 0 0 23.05 11.53 0 0 23.06 11.51 0 0 23.04 11.54 0 0 23.05 11.53 0 0 23.06 11.51 0 0 34.58 11.53 0 0 23.05 11.53 0 0 23.05 11.52 0 0 23.06 11.53 0 0 23.04 11.53 0 0 23.05 11.52 0 0 34.58 11.53 0 0 23.06 11.53 0 0 23.05 11.52 0 0 23.05 11.53 0 0 23.06 11.53 0 0 23.05 11.52 0 0 34.57 11.53 0 0 23.05 11.53 0 0 23.06 11.51 0 0 23.05 11.53 0 0 23.05 11.53 0 0 23.06 11.52 0 0 34.58 11.53 0 0 23.04 11.53 0 0 23.05 11.52 0 0 23.06 11.53 0 0 23.05 11.53 0 0 23.05 11.52 0 0 34.58 11.53 0 0 23.06 11.53 0 0 23.04 11.52 0 0 23.05 11.53 0 0 23.06 11.53 0 0 23.05 11.51 0 0 34.58 11.53 0 0 23.05 11.54 0 0 23.06 11.51 0 0 23.04 11.53 0 0 23.05 11.53 0 0 23.06 11.52 0 0 34.58 11.53 0 0 23.05 11.53 0 0 23.05 11.52 0 0 23.06 11.53 0 0 23.05 11.53 0 0 23.04 11.52 0 0 23.06 11.53 0 0 34.58 11.53 0 0 23.05 11.51 0 0 23.05 11.54 0 0 23.06 11.53 0 0 23.05 11.51 0 0 23.04 11.53 0 0 34.58 11.53 0 0 23.06 11.52 0 0 23.05 11.53 0 0 23.05 11.53 0 0 23.06 11.52 0 0 23.05 11.53 0 0 34.57 11.53 0 0 23.05 11.52 0 0 23.06 11.53 0 0 23.05 11.53 0 0 23.05 11.52 0 0 23.06 11.53 0 0 34.58 11.53 0 0 23.05 11.51 0 0 23.04 11.53 0 0 23.06 11.53 0 0 23.05 11.52 0 0 23.05 11.53 0 0 34.58 11.53 0 0 23.06 11.52 0 0 23.05 11.53 0 0 23.04 11.53 0 0 23.06 11.52 0 0 23.05 11.53 0 0 34.58 11.53 0 0 23.05 11.52 0 0 23.06 11.53 0 0 23.05 -3918.86 0 0 11.53 -11.52 0 0 23.04 -11.53 0 0 23.05 -11.53 0 0 23.06 -11.52 0 0 34.58 -11.53 0 0 23.05 -11.53 0 0 23.05 -11.53 0 0 23.06 -11.51 0 0 23.05 -11.54 0 0 23.04 -11.53 0 0 23.06 -11.51 0 0 34.58 -11.53 0 0 23.05 -11.53 0 0 23.05 -11.52 0 0 23.06 -11.53 0 0 23.05 -11.53 0 0 23.04 -11.52 0 0 34.58 -11.53 0 0 23.06 -11.53 0 0 23.05 -11.52 0 0 23.05 -11.53 0 0 23.06 -11.53 0 0 23.05 -11.52 0 0 34.57 -11.53 0 0 23.05 -11.53 0 0 23.06 -11.51 0 0 23.05 -11.53 0 0 23.05 -11.53 0 0 23.06 -11.52 0 0 34.58 -11.53 0 0 23.05 -11.53 0 0 23.04 -11.52 0 0 23.06 -11.53 0 0 23.05 -11.53 0 0 23.05 -11.52 0 0 34.58 -11.53 0 0 23.06 -11.53 0 0 23.05 -11.52 0 0 23.04 -11.53 0 0 23.06 -11.53 0 0 23.05 -11.51 0 0 34.58 -11.53 0 0 23.05 6489.16 0 0 -11.52 -11.53 0 0 -23.06 -11.51 0 0 -23.05 -11.53 0 0 -23.05 -11.53 0 0 -23.06 -11.52 0 0 -34.57 -11.53 0 0 -23.05 -11.53 0 0 -23.05 -11.52 0 0 -23.06 -11.53 0 0 -23.05 -11.53 0 0 -23.05 -11.52 0 0 -34.57 -11.53 0 0 -23.07 -11.53 0 0 -23.04 -11.52 0 0 -23.05 -11.53 0 0 -23.06 -11.53 0 0 -23.05 -11.51 0 0 -34.58 -11.53 0 0 -23.04 -11.54 0 0 -23.07 -11.51 0 0 -23.04 -11.53 0 0 -23.05 -11.53 0 0 -23.06 -11.52 0 0 -34.58 -11.53 0 0 -23.05 -11.53 0 0 -23.05 -11.52 0 0 -23.06 -11.53 0 0 -23.04 -11.53 0 0 -23.05 -11.52 0 0 -34.58 -11.53 0 0 -23.06 -11.53 0 0 -23.05 -11.51 0 0 -23.05 -11.54 0 0 -23.06 -11.53 0 0 -23.04 -11.51 0 0 -34.58 -11.53 0 0 -23.05 -11.53 0 0 -23.06 -11.52 0 0 -23.05 -11.53 0 0 -23.05 -11.53 0 0 -23.06 -11.52 0 0 -34.58 -11.53 0 0 -23.04 -11.53 0 0 -23.05 -11.52 0 0 -23.06 -11.53 0 0 -23.05 -11.53 0 0 -23.05 -11.52 0 0 -34.58 -11.53 0 0 -23.06 -11.53 0 0 -23.04 -11.51 0 0 -23.05 -11.53 0 0 -23.06 -11.53 0 0 -23.05 -11.52 0 0 -34.58 -11.53 0 0 -23.05 -11.53 0 0 -23.06 -11.52 0 0 -23.04 -11.53 0 0 -23.05 -11.53 0 0 -23.06 -11.52 0 0 -34.58 -11.53 0 0 -23.05 -11.53 0 0 -23.05 -11.52 0 0 -23.06 -11.53 0 0 -23.05 -11.53 0 0 -23.04 -11.51 0 0 -34.58 -11.53 0 0 -23.06 -11.54 0 0 -23.05 -11.51 0 0 -23.05 -11.53 0 0 -23.06 -11.53 0 0 -23.05 -11.52 0 0 -34.57 -11.53 0 0 -23.05 -11.53 0 0 -23.06 -11.52 0 0 -23.05 -11.53 0 0 -23.05 -11.53 0 0 -23.06 -11.52 0 0 -34.58 -11.53 0 0 -23.04 -11.53 0 0 -23.05 -11.51 0 0 -23.06 -11.54 0 0 -23.05 -11.53 0 0 -23.05 -11.51 0 0 -34.58 -11.53 0 0 -23.06 -11.53 0 0 -23.05 -11.52 0 0 -23.04 -11.53 0 0 -23.06 -11.53 0 0 -23.05 -11.52 0 0 -34.58 -11.53 0 0 -23.05 -11.53 0 0 -23.06 -11.52 0 0 -23.05 -11.53 0 0 -23.04 -11.53 0 0 -23.06 -11.52 0 0 -34.58 -11.53 0 0 -23.05 -11.53 0 0 -23.05 -11.51 0 0 -23.06 -11.53 0 0 -23.05 -11.53 0 0 -23.04 -11.52 0 0 -34.58 -11.53 0 0 -23.06 -11.53 0 0 -23.05 -11.52 0 0 -23.05 -11.53 0 0 -23.06 -11.53 0 0 -23.05 -11.52 0 0 -34.57 -11.53 0 0 -23.05 -11.53 0 0 -23.06 -11.52 0 0 -23.05 -11.53 0 0 -23.05 -11.53 0 0 -23.06 -11.51 0 0 -34.58 -11.53 0 0 -23.05 -11.54 0 0 -23.04 -11.51 0 0 -23.06 -11.53 0 0 -23.05 -11.53 0 0 -23.05 -11.52 0 0 -34.58 -11.53 0 0 -23.06 -11.53 0 0 -23.05 -11.52 0 0 -23.04 -11.53 0 0 -23.06 -11.53 0 0 -23.05 -11.52 0 0 -34.58 -11.53 0 0 -23.05 -11.53 0 0 -23.06 -11.51 0 0 -23.05 -11.54 0 0 -23.04 -11.53 0 0 -23.07 -11.51 0 0 -34.57 -11.53 0 0 -23.05 -11.53 0 0 -23.06 -11.52 0 0 -23.05 -11.53 0 0 -23.05 -11.53 0 0 -23.06 -11.52 0 0 -34.58 -11.53 0 0 -23.04 -11.53 0 0 -23.05 -11.52 0 0 -23.06 -11.53 0 0 -23.05 -11.53 0 0 -23.05 -11.52 0 0 -34.58 -11.53 0 0 -23.06 -11.53 0 0 -23.04 -11.51 0 0 -23.05 -11.53 0 0 -23.06 -11.53 0 0 -23.05 -11.52 0 0 -23.05 -11.53 0 0 -34.58 -11.53 0 0 -23.06 -11.53 0 0 -23.05 -11.52 0 0 -23.04 -11.53 0 0 -23.06 -11.53 0 0 -23.05 -11.52 0 0 -34.58 -11.53 0 0 -23.05 -11.53 0 0 -23.06 -11.52 0 0 -23.05 -11.53 0 0 -23.04 -11.53 0 0 -23.06 -11.51 0 0 -34.58 -11.53 0 0 -23.05 -11.54 0 0 -23.05 -11.51 0 0 -23.06 -11.53 0 0 -23.05 -11.53 0 0 -23.04 -11.52 0 0 -34.58 -11.53 0 0 -23.06 -11.53 0 0 -23.05 -11.52 0 0 -23.05 -11.53 0 0 -23.06 -11.53 0 0 -23.05 -11.52 0 0 -34.58 -11.53 0 0 -23.04 -11.53 0 0 -23.06 -11.51 0 0 -23.05 -11.54 0 0 -23.05 -11.53 0 0 -23.06 -11.51 0 0 -34.58 -11.53 0 0 -23.05 -11.53 0 0 -23.04 -11.52 0 0 -23.06 -11.53 0 0 -23.05 -11.53 0 0 -23.05 -11.52 0 0 -34.58 -11.53 0 0 -23.06 -11.53 0 0 -23.05 -11.52 0 0 -23.04 -11.53 0 0 -23.07 -11.53 0 0 -23.04 -11.52 0 0 -34.58 -11.53 0 0 -23.05 -11.53 0 0 -23.06 -11.51 0 0 -23.05 -11.53 0 0 -23.04 -11.53 0 0 -23.07 -11.52 0 0 -34.57 -11.53 0 0 -23.05 -11.53 0 0 -23.05 -11.52 0 0 -23.06 -11.53 0 0 -23.05 -11.53 0 0 -23.05 -11.52 0 0 -34.57 -11.53 0 0 -23.06 -11.53 0 0 -23.05 -11.52 0 0 -23.05 -11.53 0 0 -23.06 -11.53 0 0 -23.05 -11.51 0 0 -34.58 -11.53 0 0 -23.04 -11.54 0 0 -23.07 -11.51 0 0 -23.04 -11.53 0 0 -23.05 -11.53 0 0 -23.06 -11.52 0 0 -34.58 -11.53 0 0 -23.05 -11.53 0 0 -23.04 -11.52 0 0 -23.07 -11.53 0 0 -23.04 -11.53 0 0 -23.05 -11.52 0 0 -34.58 -11.53 0 0 -23.06 -11.53 0 0 -23.05 -11.51 0 0 -23.05 -11.54 0 0 -23.06 -11.53 0 0 -23.04 -11.51 0 0 -34.58 -11.53 0 0 -23.05 -11.53 0 0 -23.06 -11.52 0 0 -23.05 -11.53 0 0 -23.05 -11.53 0 0 -23.06 -11.52 0 0 -34.58 -11.53 0 0 -23.04 -11.53 0 0 -23.05 -11.52 0 0 -23.06 -11.53 0 0 -23.05 -11.53 0 0 -23.05 -11.52 0 0 -34.57 -11.53 0 0 -23.07 -11.53 0 0 -23.04 -154.15 -367.5 0 0 0 0 0 0 0 0 0 0 0 0 0 0 0 0 0 0 0 0 0 0 50.42 -1.33 0 -11.53 80.69 0 0 -11.53 80.68 0 0 -11.52 34.58 0 0 -11.53 80.67 0 0 -11.53 46.11 0 0 -11.52 34.58 0 0 -11.53 46.11 0 0 -11.53 57.63 0 0 -11.52 46.1 0 0 -11.53 23.05 0 0 -11.53 34.58 0 0 -11.51 46.11 0 0 -11.54 34.58 0 0 -11.53 34.57 0 0 -11.51 34.58 0 0 -11.53 23.05 0 0 -11.53 34.58 0 0 -11.52 34.58 0 0 -11.53 23.04 0 0 -11.53 23.07 0 0 -11.52 34.57 0 0 -11.53 23.05 0 0 -11.53 23.05 0 0 -11.52 34.58 0 0 -11.53 23.06 0 0 -11.53 23.05 0 0 -11.52 23.04 0 0 -11.53 23.06 0 0 -11.53 23.05 0 0 -11.51 23.05 0 0 -11.53 23.06 0 0 -11.53 23.05 0 0 -11.52 23.06 0 0 -11.53 11.52 0 0 -11.53 23.06 0 0 -11.52 23.04 0 0 -11.53 23.05 0 0 -11.53 11.53 0 0 -11.52 23.05 0 0 -11.53 23.06 0 0 -11.53 11.52 0 0 -11.52 23.06 0 0 -11.53 11.52 0 0 -11.53 23.06 0 0 -11.51 23.04 0 0 -11.53 11.54 0 0 -11.54 11.51 0 0 -11.51 23.06 0 0 -11.53 11.52 0 0 -11.53 23.06 0 0 -11.52 11.52 0 0 -11.53 23.06 0 0 -11.53 11.52 0 0 -11.52 11.53 0 0 -11.53 11.53 0 0 -11.53 23.05 0 0 -11.52 11.53 0 0 -11.53 11.51 0 0 -11.53 23.06 0 0 -11.51 11.52 0 0 -11.54 11.53 0 0 -11.53 11.53 0 0 -11.51 11.52 0 0 -11.53 23.06 0 0 -11.53 11.52 0 0 -11.52 11.53 0 0 -11.53 11.53 0 0 -11.53 11.52 0 0 -11.52 11.53 0 0 -11.53 23.04 0 0 -11.53 11.53 0 0 -11.52 11.53 0 0 -11.53 11.52 0 0 -11.53 11.53 0 0 -11.52 11.53 0 0 -11.53 11.52 0 0 -11.53 11.53 0 0 -11.51 11.53 0 0 -11.53 11.52 0 0 -11.53 11.53 0 0 -11.52 11.53 0 0 -11.53 11.52 0 0 -11.53 11.53 0 0 -11.52 11.53 0 0 -11.53 11.51 0 0 -11.53 11.53 0 0 -11.52 11.54 0 0 -23.06 11.51 0 0 -11.52 11.53 0 0 -11.53 11.53 0 0 -11.53 11.52 0 0 -11.51 11.53 0 0 -11.53 11.53 0 0 -11.54 11.52 0 0 -23.04 11.53 0 0 -11.53 11.53 0 0 -11.52 11.52 0 0 -11.53 11.53 0 0 -11.53 11.53 0 0 -23.05 11.51 0 0 -11.53 11.54 0 0 -11.52 11.53 0 0 -23.06 11.51 0 0 -11.51 11.53 0 0 -11.54 11.53 0 0 -11.53 11.52 0 0 -23.04 11.53 0 0 -11.53 11.53 0 0 -23.05 11.52 0 0 -11.53 11.53 0 0 -23.05 11.53 0 0 -11.53 11.52 0 0 -11.52 11.53 0 0 -23.06 11.53 0 0 -11.52 11.52 0 0 -23.06 11.53 0 0 -23.04 11.53 0 0 -11.53 11.51 0 0 -23.05 11.53 0 0 -11.53 11.53 0 0 -23.05 11.52 0 0 -23.05 11.53 0 0 -11.53 11.53 0 0 -23.05 11.52 0 0 -23.06 11.53 0 0 -11.51 11.53 0 0 -23.07 11.52 0 0 -23.04 11.53 0 0 -23.05 11.53 0 0 -23.06 11.52 0 0 -23.05 11.53 0 0 -23.05 11.53 0 0 -23.06 11.51 0 0 -11.51 11.53 0 0 -34.58 11.54 0 0 -23.06 11.51 0 0 -23.05 11.53 0 0 -23.05 11.53 0 0 -23.06 11.52 0 0 -23.05 11.53 0 0 -34.58 11.53 0 0 -23.04 11.52 0 0 -23.06 11.53 0 0 -34.58 11.53 0 0 -23.05 11.52 0 0 -34.58 11.53 0 0 -23.05 11.53 0 0 -34.57 11.51 0 0 -34.58 11.54 0 0 -34.58 11.53 0 0 -23.06 11.51 0 0 -34.58 11.53 0 0 -46.09 11.53 0 0 -34.58 11.52 0 0 -34.58 11.53 0 0 -46.11 11.53 0 0 -23.05 11.52 0 0 -46.11 11.53 0 0 -57.62 11.53 0 0 -46.11 11.52 0 0 -46.11 11.53 0 0 -46.09 11.53 0 0 -34.58 11.52 0 0 -57.64 11.53 0 0 -80.67 11.53 0 0 -34.58 11.51 0 0 -80.69 11.53 0 0 -57.63 11.53 0 0 -103.73 11.52 0 0 -115.26 11.53 0 0 -138.32 11.53 0 0 -172.89 11.52 0 0 -576.3 -11.52 0 0 -103.74 -11.53 0 0 -161.36 -11.53 0 0 -69.16 -11.52 0 0 -80.69 -11.53 0 0 -103.73 -11.53 0 0 -46.1 -11.51 0 0 -46.1 -11.53 0 0 -92.21 -11.53 0 0 -23.06 -11.52 0 0 -46.09 -11.53 0 0 -46.11 -11.53 0 0 -46.11 -11.52 0 0 -46.1 -11.53 0 0 -57.64 -11.53 0 0 -23.04 -11.52 0 0 -34.58 -11.53 0 0 -34.58 -11.53 0 0 -34.58 -11.52 0 0 -46.11 -11.53 0 0 -23.04 -11.53 0 0 -34.58 -11.51 0 0 -23.05 -11.53 0 0 -34.58 -11.54 0 0 -23.06 -11.51 0 0 -34.58 -11.53 0 0 -23.04 -11.53 0 0 -23.05 -11.52 0 0 -23.06 -11.53 0 0 -23.05 -11.53 0 0 -23.05 -11.52 0 0 -34.58 -11.53 0 0 -23.06 -11.53 0 0 -23.05 -11.52 0 0 -23.04 -11.53 0 0 -11.53 -11.53 0 0 -23.05 -11.51 0 0 -23.06 -11.54 0 0 -23.05 -11.53 0 0 -11.53 -11.51 0 0 -23.05 -11.53 0 0 -23.05 -11.53 0 0 -23.06 -11.52 0 0 -11.51 -11.53 0 0 -23.06 -11.53 0 0 -11.52 -11.52 0 0 -23.06 -11.53 0 0 -11.52 -11.53 0 0 -23.06 -11.52 0 0 -11.52 -11.53 0 0 -23.06 -11.53 0 0 -11.52 -11.52 0 0 -23.06 -11.53 0 0 -11.51 -11.53 0 0 -11.53 -11.51 0 0 -11.54 -11.53 0 0 -23.04 -11.53 0 0 -11.53 -11.52 0 0 -11.52 -11.53 0 0 -23.06 -11.53 0 0 -11.52 -11.52 0 0 -11.53 -11.53 0 0 -11.53 -11.53 0 0 -11.52 -11.52 0 0 -23.06 -11.53 0 0 -11.51 -11.53 0 0 -11.54 -11.52 0 0 -11.53 -11.53 0 0 -11.51 -11.53 0 0 -11.53 -11.51 0 0 -11.53 -11.53 0 0 -11.52 -11.54 0 0 -23.06 -11.51 0 0 -11.52 -11.53 0 0 -11.53 -11.53 0 0 -11.53 -23.05 0 0 -11.52 -11.53 0 0 -11.53 -11.52 0 0 -11.53 -11.53 0 0 -11.52 -11.53 0 0 -11.53 -11.52 0 0 -11.53 -11.53 0 0 -11.51 -11.53 0 0 -11.53 -11.51 0 0 -11.53 -11.54 0 0 -11.52 -11.53 0 0 -11.53 -11.51 0 0 -11.53 -11.53 0 0 -11.52 -23.05 0 0 -11.53 -11.53 0 0 -11.53 -11.53 0 0 -11.52 -11.52 0 0 -11.53 -11.53 0 0 -11.53 -23.05 0 0 -11.52 -11.53 0 0 -11.53 -11.53 0 0 -11.53 -11.52 0 0 -11.51 -23.06 0 0 -11.53 -11.51 0 0 -11.54 -23.06 0 0 -11.51 -11.52 0 0 -11.53 -11.53 0 0 -11.53 -23.05 0 0 -11.52 -11.53 0 0 -11.53 -11.53 0 0 -11.53 -23.05 0 0 -11.52 -11.53 0 0 -11.53 -23.05 0 0 -11.53 -23.04 0 0 -11.52 -11.53 0 0 -11.53 -23.05 0 0 -11.53 -11.53 0 0 -11.51 -23.05 0 0 -11.54 -11.53 0 0 -11.53 -23.05 0 0 -11.51 -23.06 0 0 -11.53 -23.05 0 0 -11.53 -11.53 0 0 -11.52 -23.05 0 0 -11.53 -23.04 0 0 -11.53 -23.06 0 0 -11.52 -11.52 0 0 -11.53 -23.06 0 0 -11.53 -23.05 0 0 -11.52 -23.05 0 0 -11.53 -23.06 0 0 -11.53 -23.05 0 0 -11.52 -23.04 0 0 -11.53 -23.06 0 0 -11.53 -23.05 0 0 -11.51 -34.58 0 0 -11.53 -23.06 0 0 -11.53 -23.05 0 0 -11.52 -34.58 0 0 -11.53 -23.04 0 0 -11.53 -23.07 0 0 -11.52 -34.57 0 0 -11.53 -23.05 0 0 -11.53 -34.58 0 0 -11.52 -23.05 0 0 -11.53 -34.57 0 0 -11.53 -34.58 0 0 -11.52 -23.06 0 0 -11.53 -34.58 0 0 -11.53 -34.58 0 0 -11.51 -34.58 0 0 -11.53 -34.58 0 0 -11.54 -34.57 0 0 -11.51 -34.58 0 0 -11.53 -57.63 0 0 -11.53 -34.58 0 0 -11.52 -46.11 0 0 -11.53 -34.57 0 0 -11.53 -46.1 0 0 -11.52 -46.11 0 0 -11.53 -46.11 0 0 -11.53 -46.09 0 0 -11.52 -46.11 0 0 -11.53 -46.11 0 0 -11.53 -46.09 0 0 -11.51 -69.16 0 0 -11.54 -69.16 0 0 -11.53 -57.64 0 0 -11.51 -34.57 0 0 -11.53 -69.16 0 0 -11.53 -103.73 0 0 -11.52 -80.68 0 0 -11.53 -57.64 0 0 -11.53 -103.73 0 0 -11.52 -103.73 0 0 -11.53 -80.68 0 0 -11.53 -103.73 0 0 -11.52 -126.8 0 0 -11.53 -195.94 0 0 -11.53 -276.62 0 0 -11.52 -380.36 0 0 -11.53 -1521.44 0 0 23.05 11.52 0 0 11.53 11.53 0 0 23.05 11.53 0 0 23.06 11.52 0 0 34.58 11.53 0 0 23.05 11.53 0 0 23.04 11.52 0 0 23.07 11.53 0 0 23.04 11.53 0 0 23.05 11.51 0 0 34.58 11.53 0 0 23.06 11.54 0 0 23.05 11.51 0 0 23.04 11.53 0 0 23.07 11.53 0 0 23.04 11.53 0 0 34.58 11.52 0 0 23.05 11.53 0 0 23.06 11.53 0 0 23.05 11.52 0 0 23.05 11.53 0 0 23.06 11.53 0 0 34.57 11.52 0 0 23.05 11.53 0 0 23.05 11.53 0 0 23.06 11.52 0 0 23.05 11.53 0 0 23.05 11.53 0 0 34.57 11.51 0 0 23.07 11.53 0 0 23.04 11.53 0 0 23.05 11.52 0 0 23.06 11.53 0 0 23.05 11.53 0 0 34.58 11.52 0 0 23.04 11.53 0 0 23.07 11.53 0 0 23.04 11.52 0 0 23.05 11.53 0 0 23.06 11.53 0 0 34.58 11.52 0 0 23.05 11.53 0 0 23.05 11.53 0 0 23.06 11.51 0 0 23.04 11.53 0 0 23.05 1060.4 0 0 11.53 299.68 0 0 11.53 138.31 0 0 11.52 57.63 0 0 11.53 138.31 0 0 11.53 80.69 0 0 11.52 69.16 0 0 11.53 34.57 0 0 11.53 80.68 0 0 11.52 69.15 0 0 11.53 57.64 0 0 11.53 34.58 0 0 11.51 46.1 0 0 11.53 46.1 0 0 11.54 46.11 0 0 11.51 57.63 0 0 11.53 23.05 0 0 11.53 46.1 0 0 11.52 46.11 0 0 11.53 34.58 0 0 11.53 34.58 0 0 11.52 34.58 0 0 11.53 23.04 0 0 11.53 34.58 0 0 11.52 34.58 0 0 11.53 34.58 0 0 11.53 23.05 0 0 11.51 34.57 0 0 11.54 23.07 0 0 11.53 23.04 0 0 11.51 34.58 0 0 11.53 23.05 0 0 11.53 23.06 0 0 11.52 23.05 0 0 11.53 23.05 0 0 11.53 23.06 0 0 11.52 23.04 0 0 11.53 23.05 0 0 11.53 23.06 0 0 11.52 23.05 0 0 11.53 23.05 0 0 11.53 11.53 0 0 11.52 23.05 0 0 11.53 23.06 0 0 11.53 11.51 0 0 11.51 23.07 0 0 11.53 23.04 0 0 11.53 11.53 0 0 11.52 23.05 0 0 11.53 11.53 0 0 11.53 23.05 0 0 11.52 11.53 0 0 11.53 23.05 0 0 11.53 11.53 0 0 11.52 23.05 0 0 11.53 11.53 0 0 11.53 11.51 0 0 11.52 23.06 0 0 11.53 11.52 0 0 11.53 11.53 0 0 11.51 11.53 0 0 11.53 23.05 0 0 11.54 11.53 0 0 11.51 11.52 0 0 11.53 11.53 0 0 11.53 23.05 0 0 11.52 11.53 0 0 11.53 11.53 0 0 11.53 11.51 0 0 11.52 11.53 0 0 11.53 11.53 0 0 11.53 11.52 0 0 11.52 11.53 0 0 11.53 11.53 0 0 11.53 11.52 0 0 11.51 11.53 0 0 11.54 11.53 0 0 11.53 11.52 0 0 11.51 11.53 0 0 11.53 11.53 0 0 11.53 11.52 0 0 11.52 11.53 0 0 11.53 11.53 0 0 23.05 11.51 0 0 11.53 11.53 0 0 11.53 11.54 0 0 11.52 11.51 0 0 11.53 11.53 0 0 11.53 11.53 0 0 23.05 11.52 0 0 11.53 11.53 0 0 11.51 11.53 0 0 23.06 11.52 0 0 11.52 11.53 0 0 23.06 11.53 0 0 11.52 11.52 0 0 11.53 11.53 0 0 23.05 11.53 0 0 11.53 11.51 0 0 23.05 11.54 0 0 23.06 11.53 0 0 11.51z"/>
  <polygon class="fil0" points="16365.96,13631.9 16377.49,13631.9 16377.49,13678.01 16389.01,13678.01 16389.01,13735.64 16400.54,13735.64 16400.54,13758.7 16412.07,13758.7 16412.07,13804.79 16423.58,13804.79 16423.58,13862.43 16435.12,13862.43 16435.12,13885.48 16446.65,13885.48 16446.65,13943.1 16458.16,13943.1 16458.16,13989.21 16469.69,13989.21 16469.69,14012.26 16481.22,14012.26 16481.22,14069.9 16492.74,14069.9 16492.74,14116 16504.27,14116 16504.27,14139.06 16515.8,14139.06 16515.8,14196.68 16527.32,14196.68 16527.32,14231.26 16538.85,14231.26 16538.85,14288.89 16550.38,14288.89 16550.38,14311.95 16561.9,14311.95 16561.9,14358.04 16573.43,14358.04 16573.43,14415.68 16584.96,14415.68 16584.96,14438.73 16596.47,14438.73 16596.47,14484.84 16608.01,14484.84 16608.01,14542.46 16619.54,14542.46 16619.54,14565.51 16631.05,14565.51 16631.05,14611.62 16642.58,14611.62 16642.58,14669.25 16654.11,14669.25 16654.11,14692.31 16665.63,14692.31 16665.63,14738.4 21114.69,14738.4 21114.69,14772.98 21103.16,14772.98 21103.16,14819.09 21091.64,14819.09 21091.64,14865.2 21080.11,14865.2 21080.11,14888.24 21068.58,14888.24 21068.58,14945.87 21057.06,14945.87 21057.06,14991.98 21045.53,14991.98 21045.53,15015.03 21034,15015.03 21034,15061.14 21022.49,15061.14 21022.49,15107.24 21010.96,15107.24 21010.96,15164.87 20999.43,15164.87 20999.43,15187.92 20987.91,15187.92 20987.91,15245.56 20976.38,15245.56 20976.38,15280.13 20964.85,15280.13 20964.85,15337.76 20953.33,15337.76 20953.33,15360.81 20941.8,15360.81 20941.8,15418.45 20930.27,15418.45 20930.27,15464.54 20918.75,15464.54 20918.75,15510.65 20907.22,15510.65 20907.22,15533.7 20895.69,15533.7 20895.69,15591.34 20884.17,15591.34 20884.17,15637.43 20872.64,15637.43 20872.64,15660.49 20861.11,15660.49 20861.11,15706.59 20849.6,15706.59 20849.6,15752.7 20838.07,15752.7 20838.07,15810.32 20826.54,15810.32 20826.54,15833.38 20815.02,15833.38 20815.02,15879.48 20803.49,15879.48 20803.49,15925.59 20791.96,15925.59 20791.96,15983.21 20780.44,15983.21 20780.44,16006.28 20768.91,16006.28 20768.91,16063.9 20757.38,16063.9 20757.38,16110.01 20745.86,16110.01 20745.86,16156.1 20734.33,16156.1 20734.33,16179.17 20722.8,16179.17 20722.8,16236.79 20711.28,16236.79 20711.28,16282.9 20699.75,16282.9 20699.75,16305.95 20688.22,16305.95 20688.22,16352.06 20676.71,16352.06 20676.71,16398.15 20665.18,16398.15 20665.18,16455.79 20653.64,16455.79 20653.64,16478.84 20642.13,16478.84 20642.13,16536.46 20630.6,16536.46 20630.6,16582.57 20619.07,16582.57 20619.07,16628.68 20607.55,16628.68 20607.55,16651.73 20596.02,16651.73 20596.02,16709.35 20584.49,16709.35 20584.49,16755.46 20572.97,16755.46 20572.97,16801.57 20561.44,16801.57 20561.44,16824.62 20549.91,16824.62 20549.91,16870.73 20538.39,16870.73 20538.39,16928.35 20526.86,16928.35 20526.86,16951.41 20515.33,16951.41 20515.33,17009.04 20503.82,17009.04 20503.82,17043.62 20492.28,17043.62 20492.28,17101.24 20480.75,17101.24 20480.75,17124.31 20469.24,17124.31 20469.24,17181.93 20457.71,17181.93 20457.71,17228.04 20446.18,17228.04 20446.18,17274.14 20434.66,17274.14 20434.66,17297.2 20423.13,17297.2 20423.13,17354.82 20411.6,17354.82 20411.6,17400.93 20400.08,17400.93 20400.08,17423.98 20388.55,17423.98 20388.55,17470.09 20377.02,17470.09 20377.02,17516.18 20365.5,17516.18 20365.5,17573.82 20353.97,17573.82 20353.97,17596.87 20342.44,17596.87 20342.44,17654.49 20330.92,17654.49 20330.92,17689.07 20319.39,17689.07 20319.39,17746.71 20307.86,17746.71 20307.86,17769.76 20296.35,17769.76 20296.35,17827.39 20284.82,17827.39 20284.82,17873.49 20273.29,17873.49 20273.29,17919.6 20261.77,17919.6 20261.77,17942.65 20250.24,17942.65 20250.24,18000.28 20238.71,18000.28 20238.71,18046.38 20227.19,18046.38 20227.19,18069.43 20215.66,18069.43 20215.66,18115.54 20204.13,18115.54 20204.13,18161.65 20192.61,18161.65 20192.61,18219.27 20181.08,18219.27 20181.08,18242.32 20169.55,18242.32 20169.55,18288.43 20158.03,18288.43 20158.03,18334.54 20146.5,18334.54 20146.5,18392.17 20134.97,18392.17 20134.97,18415.21 20123.46,18415.21 20123.46,18472.85 20111.93,18472.85 20111.93,18518.95 20100.39,18518.95 20100.39,18565.06 20088.88,18565.06 20088.88,18588.1 20077.35,18588.1 20077.35,18634.21 20065.82,18634.21 20065.82,18691.84 20054.3,18691.84 20054.3,18714.9 20042.77,18714.9 20042.77,18760.99 20031.24,18760.99 20031.24,18807.1 20019.72,18807.1 20019.72,18864.73 20008.19,18864.73 20008.19,18887.79 19996.66,18887.79 19996.66,18945.42 19985.14,18945.42 19985.14,18979.99 19973.61,18979.99 19973.61,19037.62 19962.08,19037.62 19962.08,19060.68 19950.57,19060.68 19950.57,19118.31 19939.03,19118.31 19939.03,19164.41 19927.5,19164.41 19927.5,19187.46 19915.99,19187.46 19915.99,19233.57 19904.46,19233.57 19904.46,19279.67 19892.93,19279.67 19892.93,19337.31 19881.41,19337.31 19881.41,19360.35 19869.88,19360.35 19869.88,19406.46 19858.35,19406.46 19858.35,19452.56 19846.83,19452.56 19846.83,19510.2 19835.3,19510.2 19835.3,19533.24 19823.77,19533.24 19823.77,19590.87 19812.25,19590.87 19812.25,19636.98 19800.72,19636.98 19800.72,19683.09 19789.19,19683.09 19789.19,19706.13 19777.67,19706.13 19777.67,19763.76 19766.14,19763.76 19766.14,19809.87 19754.61,19809.87 19754.61,19832.92 19743.1,19832.92 19743.1,19879.02 19731.57,19879.02 19731.57,19925.13 19720.04,19925.13 19720.04,19982.76 19708.52,19982.76 19708.52,20005.81 19696.99,20005.81 19696.99,20063.45 19685.46,20063.45 19685.46,20098.02 19673.94,20098.02 19673.94,20155.65 19662.41,20155.65 19662.41,20178.7 19650.88,20178.7 19650.88,20236.34 19639.36,20236.34 19639.36,20282.43 19627.83,20282.43 19627.83,20328.54 19616.3,20328.54 19616.3,20351.59 19604.78,20351.59 19604.78,20409.23 19593.25,20409.23 19593.25,20455.32 19581.72,20455.32 19581.72,20478.38 19570.21,20478.38 19570.21,20524.48 19558.68,20524.48 19558.68,20570.59 19547.15,20570.59 19547.15,20628.21 19535.63,20628.21 19535.63,20651.27 19524.1,20651.27 19524.1,20708.9 19512.57,20708.9 19512.57,20755.01 19501.05,20755.01 19501.05,20801.1 19489.52,20801.1 19489.52,20824.16 19477.99,20824.16 19477.99,20881.79 19466.47,20881.79 19466.47,20927.9 19454.94,20927.9 19454.94,20973.99 19443.41,20973.99 19443.41,20997.06 19431.89,20997.06 19431.89,21043.15 19420.36,21043.15 19420.36,21100.79 19408.83,21100.79 19408.83,21123.84 19397.32,21123.84 19397.32,21169.95 19385.79,21169.95 19385.79,21216.04 19374.25,21216.04 19374.25,21273.68 19362.74,21273.68 19362.74,21296.73 19351.21,21296.73 19351.21,21354.35 19339.68,21354.35 19339.68,21400.46 19328.16,21400.46 19328.16,21446.57 19316.63,21446.57 19316.63,21469.62 19305.1,21469.62 19305.1,21527.24 19293.58,21527.24 19293.58,21573.35 19282.05,21573.35 19282.05,21596.4 19270.52,21596.4 19270.52,21642.51 19259,21642.51 19259,21688.62 19247.47,21688.62 19247.47,21746.24 19235.94,21746.24 19235.94,21769.29 19224.43,21769.29 19224.43,21826.93 19212.89,21826.93 19212.89,21861.51 19201.36,21861.51 19201.36,21919.13 19189.85,21919.13 19189.85,21942.18 19178.32,21942.18 19178.32,21999.82 19166.79,21999.82 19166.79,22045.92 19155.27,22045.92 19155.27,22092.02 19143.74,22092.02 19143.74,22115.07 19132.21,22115.07 19132.21,22172.71 19120.69,22172.71 19120.69,22218.81 19109.16,22218.81 19109.16,22241.87 19097.63,22241.87 19097.63,22287.96 19086.11,22287.96 19086.11,22334.07 19074.58,22334.07 19074.58,22391.7 19063.05,22391.7 19063.05,22414.76 19051.53,22414.76 19051.53,22460.85 19040,22460.85 19040,22506.96 19028.47,22506.96 19028.47,22564.59 19016.96,22564.59 19016.96,22587.65 19005.43,22587.65 19005.43,22645.27 18993.9,22645.27 18993.9,22691.38 18982.38,22691.38 18982.38,22737.48 18970.85,22737.48 18970.85,22760.54 18959.32,22760.54 18959.32,22806.63 18947.8,22806.63 18947.8,22864.27 18936.27,22864.27 18936.27,22887.32 18924.74,22887.32 18924.74,22933.43 18913.22,22933.43 18913.22,23037.16 18924.74,23037.16 18924.74,23060.21 18936.27,23060.21 18936.27,23106.32 18947.8,23106.32 18947.8,23163.95 18959.32,23163.95 18959.32,23186.99 18970.85,23186.99 18970.85,23244.63 18982.38,23244.63 18982.38,23290.73 18993.9,23290.73 18993.9,23313.79 19005.43,23313.79 19005.43,23371.42 19016.96,23371.42 19016.96,23417.52 19028.47,23417.52 19028.47,23440.57 19040,23440.57 19040,23498.2 19051.53,23498.2 19051.53,23544.31 19063.05,23544.31 19063.05,23567.35 19074.58,23567.35 19074.58,23613.46 19086.11,23613.46 19086.11,23659.57 19097.63,23659.57 19097.63,23717.2 19109.16,23717.2 19109.16,23740.24 19120.69,23740.24 19120.69,23786.35 19132.21,23786.35 19132.21,23843.98 19143.74,23843.98 19143.74,23867.04 19155.27,23867.04 19155.27,23913.13 19166.79,23913.13 19166.79,23970.77 19178.32,23970.77 19178.32,23993.82 19189.85,23993.82 19189.85,24051.45 19201.36,24051.45 19201.36,24097.56 19212.89,24097.56 19212.89,24120.6 19224.43,24120.6 19224.43,24178.24 19235.94,24178.24 19235.94,24224.34 19247.47,24224.34 19247.47,24247.4 19259,24247.4 19259,24305.02 19270.52,24305.02 19270.52,24339.6 19282.05,24339.6 19282.05,24397.24 19293.58,24397.24 19293.58,24420.29 19305.1,24420.29 19305.1,24466.4 19316.63,24466.4 19316.63,24524.02 19328.16,24524.02 19328.16,24547.07 19339.68,24547.07 19339.68,24593.18 19351.21,24593.18 19351.21,24650.81 19362.74,24650.81 19362.74,24673.87 19374.25,24673.87 19374.25,24731.49 19385.79,24731.49 19385.79,24777.6 19397.32,24777.6 19397.32,24800.65 19408.83,24800.65 19408.83,24858.27 19420.36,24858.27 19420.36,24904.38 19431.89,24904.38 19431.89,24927.43 19443.41,24927.43 19443.41,24985.07 19454.94,24985.07 19454.94,25031.17 19466.47,25031.17 19466.47,25054.23 19477.99,25054.23 19477.99,25111.85 19489.52,25111.85 19489.52,25146.43 19501.05,25146.43 19501.05,25204.06 19512.57,25204.06 19512.57,25227.12 19524.1,25227.12 19524.1,25273.21 19535.63,25273.21 19535.63,25330.85 19547.15,25330.85 19547.15,25353.9 19558.68,25353.9 19558.68,25400.01 19570.21,25400.01 19570.21,25457.63 19581.72,25457.63 19581.72,25480.68 19593.25,25480.68 19593.25,25538.32 19604.78,25538.32 19604.78,25549.84 19616.3,25549.84 19616.3,25503.74 19627.83,25503.74 19627.83,25457.63 19639.36,25457.63 19639.36,25434.59 19650.88,25434.59 19650.88,25388.48 19662.41,25388.48 19662.41,25330.85 19673.94,25330.85 19673.94,25307.79 19685.46,25307.79 19685.46,25261.69 19696.99,25261.69 19696.99,25215.59 19708.52,25215.59 19708.52,25157.96 19720.04,25157.96 19720.04,25134.9 19731.57,25134.9 19731.57,25077.27 19743.1,25077.27 19743.1,25031.17 19754.61,25031.17 19754.61,24985.07 19766.14,24985.07 19766.14,24962.01 19777.67,24962.01 19777.67,24904.38 19789.19,24904.38 19789.19,24858.27 19800.72,24858.27 19800.72,24835.23 19812.25,24835.23 19812.25,24789.12 19823.77,24789.12 19823.77,24743.02 19835.3,24743.02 19835.3,24685.38 19846.83,24685.38 19846.83,24662.34 19858.35,24662.34 19858.35,24616.23 19869.88,24616.23 19869.88,24558.6 19881.41,24558.6 19881.41,24512.49 19892.93,24512.49 19892.93,24489.45 19904.46,24489.45 19904.46,24431.82 19915.99,24431.82 19915.99,24385.71 19927.5,24385.71 19927.5,24339.6 19939.03,24339.6 19939.03,24316.56 19950.57,24316.56 19950.57,24270.45 19962.08,24270.45 19962.08,24212.82 19973.61,24212.82 19973.61,24189.76 19985.14,24189.76 19985.14,24143.66 19996.66,24143.66 19996.66,24097.56 20008.19,24097.56 20008.19,24039.93 20019.72,24039.93 20019.72,24016.87 20031.24,24016.87 20031.24,23959.24 20042.77,23959.24 20042.77,23924.67 20054.3,23924.67 20054.3,23867.04 20065.82,23867.04 20065.82,23843.98 20077.35,23843.98 20077.35,23786.35 20088.88,23786.35 20088.88,23740.24 20100.39,23740.24 20100.39,23694.15 20111.93,23694.15 20111.93,23671.09 20123.46,23671.09 20123.46,23624.99 20134.97,23624.99 20134.97,23567.35 20146.5,23567.35 20146.5,23544.31 20158.03,23544.31 20158.03,23498.2 20169.55,23498.2 20169.55,23452.1 20181.08,23452.1 20181.08,23394.46 20192.61,23394.46 20192.61,23371.42 20204.13,23371.42 20204.13,23313.79 20215.66,23313.79 20215.66,23267.68 20227.19,23267.68 20227.19,23221.57 20238.71,23221.57 20238.71,23198.52 20250.24,23198.52 20250.24,23140.9 20261.77,23140.9 20261.77,23094.79 20273.29,23094.79 20273.29,23048.68 20284.82,23048.68 20284.82,23025.63 20296.35,23025.63 20296.35,22979.53 20307.86,22979.53 20307.86,22921.9 20319.39,22921.9 20319.39,22898.85 20330.92,22898.85 20330.92,22852.74 20342.44,22852.74 20342.44,22806.63 20353.97,22806.63 20353.97,22749.01 20365.5,22749.01 20365.5,22725.96 20377.02,22725.96 20377.02,22668.32 20388.55,22668.32 20388.55,22622.23 20400.08,22622.23 20400.08,22576.12 20411.6,22576.12 20411.6,22553.07 20423.13,22553.07 20423.13,22495.43 20434.66,22495.43 20434.66,22449.34 20446.18,22449.34 20446.18,22426.28 20457.71,22426.28 20457.71,22380.18 20469.24,22380.18 20469.24,22334.07 20480.75,22334.07 20480.75,22276.45 20492.28,22276.45 20492.28,22253.38 20503.82,22253.38 20503.82,22207.29 20515.33,22207.29 20515.33,22149.65 20526.86,22149.65 20526.86,22103.56 20538.39,22103.56 20538.39,22080.49 20549.91,22080.49 20549.91,22022.87 20561.44,22022.87 20561.44,21976.76 20572.97,21976.76 20572.97,21930.66 20584.49,21930.66 20584.49,21907.6 20596.02,21907.6 20596.02,21861.51 20607.55,21861.51 20607.55,21803.87 20619.07,21803.87 20619.07,21780.82 20630.6,21780.82 20630.6,21734.71 20642.13,21734.71 20642.13,21688.62 20653.64,21688.62 20653.64,21630.98 20665.18,21630.98 20665.18,21607.93 20676.71,21607.93 20676.71,21550.31 20688.22,21550.31 20688.22,21515.73 20699.75,21515.73 20699.75,21458.09 20711.28,21458.09 20711.28,21435.04 20722.8,21435.04 20722.8,21377.41 20734.33,21377.41 20734.33,21331.31 20745.86,21331.31 20745.86,21285.2 20757.38,21285.2 20757.38,21262.15 20768.91,21262.15 20768.91,21216.04 20780.44,21216.04 20780.44,21158.42 20791.96,21158.42 20791.96,21135.37 20803.49,21135.37 20803.49,21089.26 20815.02,21089.26 20815.02,21043.15 20826.54,21043.15 20826.54,20985.52 20838.07,20985.52 20838.07,20962.48 20849.6,20962.48 20849.6,20904.84 20861.11,20904.84 20861.11,20858.74 20872.64,20858.74 20872.64,20812.63 20884.17,20812.63 20884.17,20789.59 20895.69,20789.59 20895.69,20731.95 20907.22,20731.95 20907.22,20685.85 20918.75,20685.85 20918.75,20639.74 20930.27,20639.74 20930.27,20616.7 20941.8,20616.7 20941.8,20570.59 20953.33,20570.59 20953.33,20512.96 20964.85,20512.96 20964.85,20489.9 20976.38,20489.9 20976.38,20443.81 20987.91,20443.81 20987.91,20397.7 20999.43,20397.7 20999.43,20340.07 21010.96,20340.07 21010.96,20317.01 21022.49,20317.01 21022.49,20259.38 21034,20259.38 21034,20213.28 21045.53,20213.28 21045.53,20167.18 21057.06,20167.18 21057.06,20144.12 21068.58,20144.12 21068.58,20086.49 21080.11,20086.49 21080.11,20040.38 21091.64,20040.38 21091.64,20017.34 21103.16,20017.34 21103.16,19971.23 21114.69,19971.23 21114.69,19925.13 21126.22,19925.13 21126.22,19867.49 21137.74,19867.49 21137.74,19844.45 21149.27,19844.45 21149.27,19786.82 21160.8,19786.82 21160.8,19752.24 21172.32,19752.24 21172.32,19694.6 21183.85,19694.6 21183.85,19671.56 21195.38,19671.56 21195.38,19613.93 21206.89,19613.93 21206.89,19567.82 21218.42,19567.82 21218.42,19521.71 21229.96,19521.71 21229.96,19498.67 21241.47,19498.67 21241.47,19452.56 21253,19452.56 21253,19394.93 21264.53,19394.93 21264.53,19371.88 21276.05,19371.88 21276.05,19325.77 21287.58,19325.77 21287.58,19279.67 21299.11,19279.67 21299.11,19222.04 21310.63,19222.04 21310.63,19198.99 21322.16,19198.99 21322.16,19152.88 21333.69,19152.88 21333.69,19095.26 21345.21,19095.26 21345.21,19049.15 21356.74,19049.15 21356.74,19026.1 21368.27,19026.1 21368.27,18968.46 21379.78,18968.46 21379.78,18922.37 21391.32,18922.37 21391.32,18876.26 21402.85,18876.26 21402.85,18853.21 21414.36,18853.21 21414.36,18807.1 21425.89,18807.1 21425.89,18749.48 21437.42,18749.48 21437.42,18726.42 21448.94,18726.42 21448.94,18680.32 21460.47,18680.32 21460.47,18634.21 21472,18634.21 21472,18576.59 21483.52,18576.59 21483.52,18553.53 21495.05,18553.53 21495.05,18495.9 21506.58,18495.9 21506.58,18449.79 21518.1,18449.79 21518.1,18403.7 21529.63,18403.7 21529.63,18380.63 21541.16,18380.63 21541.16,18323.01 21552.68,18323.01 21552.68,18276.9 21564.21,18276.9 21564.21,18230.81 21575.74,18230.81 21575.74,18207.74 21587.25,18207.74 21587.25,18161.65 21598.78,18161.65 21598.78,18104.01 21610.31,18104.01 21610.31,18080.96 21621.83,18080.96 21621.83,18023.34 21633.36,18023.34 21633.36,17988.76 21644.89,17988.76 21644.89,17931.12 21656.41,17931.12 21656.41,17908.07 21667.94,17908.07 21667.94,17850.45 21679.47,17850.45 21679.47,17804.34 21690.99,17804.34 21690.99,17758.23 21702.52,17758.23 21702.52,17735.18 21714.05,17735.18 21714.05,17677.56 21725.58,17677.56 21725.58,17631.45 21737.1,17631.45 21737.1,17608.4 21748.63,17608.4 21748.63,17562.29 21760.16,17562.29 21760.16,17516.18 21771.67,17516.18 21771.67,17458.56 21783.21,17458.56 21783.21,17435.51 21794.74,17435.51 21794.74,17377.87 21806.25,17377.87 21806.25,17343.29 21817.78,17343.29 21817.78,17285.67 21829.31,17285.67 21829.31,17262.62 21840.83,17262.62 21840.83,17204.98 21852.36,17204.98 21852.36,17158.88 21863.89,17158.88 21863.89,17112.78 21875.41,17112.78 21875.41,17089.73 21886.94,17089.73 21886.94,17043.62 21898.47,17043.62 21898.47,16985.99 21909.99,16985.99 21909.99,16962.93 21921.52,16962.93 21921.52,16916.84 21933.05,16916.84 21933.05,16870.73 21944.57,16870.73 21944.57,16813.09 21956.1,16813.09 21956.1,16790.04 21967.63,16790.04 21967.63,16743.93 21979.14,16743.93 21979.14,16686.31 21990.67,16686.31 21990.67,16640.2 22002.2,16640.2 22002.2,16617.15 22013.72,16617.15 22013.72,16559.53 22025.25,16559.53 22025.25,16513.42 22036.78,16513.42 22036.78,16467.31 22048.3,16467.31 22048.3,16444.26 22059.83,16444.26 22059.83,16398.15 22071.36,16398.15 22071.36,16340.53 22082.88,16340.53 22082.88,16317.48 22094.41,16317.48 22094.41,16271.37 22105.94,16271.37 22105.94,16225.26 22117.46,16225.26 22117.46,16167.64 22128.99,16167.64 22128.99,16144.59 22140.52,16144.59 22140.52,16086.95 22152.03,16086.95 22152.03,16040.85 22163.56,16040.85 22163.56,15994.74 22175.1,15994.74 22175.1,15971.7 22186.61,15971.7 22186.61,15914.06 22198.14,15914.06 22198.14,15867.96 22209.67,15867.96 22209.67,15844.9 22221.19,15844.9 22221.19,15798.81 22232.72,15798.81 22232.72,15752.7 22244.25,15752.7 22244.25,15695.07 22255.77,15695.07 22255.77,15672.01 22267.3,15672.01 22267.3,15614.39 22278.83,15614.39 22278.83,15579.81 22290.35,15579.81 22290.35,15522.18 22301.88,15522.18 22301.88,15499.12 22313.41,15499.12 22313.41,15441.49 22324.92,15441.49 22324.92,15395.39 22336.46,15395.39 22336.46,15349.29 22347.99,15349.29 22347.99,15326.23 22359.5,15326.23 22359.5,15268.6 22371.03,15268.6 22371.03,15222.5 22382.56,15222.5 22382.56,15199.45 22394.08,15199.45 22394.08,15153.34 22405.61,15153.34 22405.61,15107.24 22417.14,15107.24 22417.14,15049.6 22428.66,15049.6 22428.66,15026.56 22440.19,15026.56 22440.19,14968.93 22451.72,14968.93 22451.72,14934.35 22463.24,14934.35 22463.24,14876.71 22474.77,14876.71 22474.77,14853.67 22486.3,14853.67 22486.3,14796.04 22497.82,14796.04 22497.82,14749.93 22509.35,14749.93 22509.35,14738.4 25967.16,14738.4 25967.16,14715.35 25955.63,14715.35 25955.63,14680.78 25944.11,14680.78 25944.11,14657.73 25932.58,14657.73 25932.58,14634.67 25921.05,14634.67 25921.05,14611.62 25909.53,14611.62 25909.53,14588.57 25898,14588.57 25898,14565.51 25886.47,14565.51 25886.47,14530.93 25874.95,14530.93 25874.95,14507.89 25863.42,14507.89 25863.42,14484.84 25851.89,14484.84 25851.89,14461.78 25840.37,14461.78 25840.37,14438.73 25828.84,14438.73 25828.84,14415.68 25817.31,14415.68 25817.31,14381.1 25805.8,14381.1 25805.8,14358.04 25794.27,14358.04 25794.27,14334.99 25782.74,14334.99 25782.74,14311.95 25771.22,14311.95 25771.22,14288.89 25759.69,14288.89 25759.69,14265.84 25748.16,14265.84 25748.16,14231.26 25736.64,14231.26 25736.64,14208.21 25725.11,14208.21 25725.11,14185.15 25713.58,14185.15 25713.58,14162.1 25702.06,14162.1 25702.06,14139.06 25690.53,14139.06 25690.53,14116 25679,14116 25679,14081.42 25667.48,14081.42 25667.48,14058.37 25655.95,14058.37 25655.95,14035.32 25644.42,14035.32 25644.42,14012.26 25632.91,14012.26 25632.91,13989.21 25621.38,13989.21 25621.38,13966.17 25609.85,13966.17 25609.85,13931.59 25598.33,13931.59 25598.33,13908.53 25586.8,13908.53 25586.8,13885.48 25575.27,13885.48 25575.27,13862.43 25563.75,13862.43 25563.75,13839.37 25552.22,13839.37 25552.22,13816.32 25540.69,13816.32 25540.69,13781.74 25529.17,13781.74 25529.17,13758.7 25517.64,13758.7 25517.64,13735.64 25506.11,13735.64 25506.11,13712.59 25494.59,13712.59 25494.59,13689.54 25483.06,13689.54 25483.06,13666.48 25471.53,13666.48 25471.53,13631.9 25460.02,13631.9 25460.02,13608.85 16365.96,13608.85 "/>
  <path class="fil0" d="M10476.15 27025.18l11.53 0 0 -46.11 11.51 0 0 -46.11 11.54 0 0 -46.09 11.53 0 0 -46.11 11.51 0 0 -46.11 11.53 0 0 -46.1 11.54 0 0 -46.11 11.51 0 0 -23.04 23.07 0 0 46.09 11.51 0 0 46.11 11.53 0 0 46.11 11.54 0 0 46.1 11.51 0 0 34.57 11.53 0 0 46.12 11.53 0 0 46.1 11.52 0 0 46.09 11.53 0 0 11.53 -207.47 0 0 -23.04zm11.53 -391.89l-11.53 0 0 34.57 -11.53 0 0 46.12 -11.52 0 0 46.09 -11.53 0 0 46.11 -11.53 0 0 46.11 -11.52 0 0 46.09 -11.52 0 0 34.58 -11.54 0 0 46.11 -11.52 0 0 46.11 -11.52 0 0 46.09 -11.53 0 0 34.58 -11.52 0 0 46.11 -11.53 0 0 46.11 -11.53 0 0 46.1 -11.52 0 0 46.1 -11.53 0 0 11.53 115.26 0 0 -34.58 11.52 0 0 -46.1 11.53 0 0 -57.63 11.53 0 0 -46.11 242.04 0 0 23.05 11.53 0 0 57.64 11.53 0 0 46.1 11.52 0 0 57.63 126.79 0 0 -23.05 -11.54 0 0 -46.11 -11.51 0 0 -46.1 -11.53 0 0 -46.11 -11.53 0 0 -34.58 -11.52 0 0 -46.09 -11.53 0 0 -46.11 -11.52 0 0 -46.11 -11.53 0 0 -46.1 -11.53 0 0 -34.57 -11.52 0 0 -46.11 -11.53 0 0 -46.11 -11.52 0 0 -46.1 -11.53 0 0 -34.57 -11.53 0 0 -46.12 -11.52 0 0 -46.1 -11.53 0 0 -23.05 -184.41 0 0 34.58zm12010.14 553.25l-11.52 0 0 23.05 -11.53 0 0 11.53 -11.53 0 0 11.52 -23.05 0 0 11.53 -92.2 0 0 -11.53 -23.07 0 0 -11.52 -11.51 0 0 -23.05 -11.53 0 0 -46.11 11.53 0 0 -46.11 11.51 0 0 -11.51 11.54 0 0 -11.54 11.53 0 0 -11.53 23.04 0 0 -11.51 11.54 0 0 -11.54 23.04 0 0 -11.53 23.05 0 0 -11.51 23.06 0 0 -11.53 23.05 0 0 -11.53 23.05 0 0 -11.52 11.52 0 0 138.32 -11.52 0 0 57.62zm-184.41 -403.41l-23.07 0 0 11.52 -34.58 0 0 11.53 -11.51 0 0 11.53 -11.53 0 0 23.05 -11.53 0 0 23.05 -11.52 0 0 46.11 92.21 0 0 -34.58 11.53 0 0 -23.05 11.51 0 0 -11.53 11.54 0 0 -11.53 23.04 0 0 -11.52 92.22 0 0 11.52 23.05 0 0 11.53 11.53 0 0 11.53 11.52 0 0 80.67 -11.52 0 0 11.54 -11.53 0 0 11.52 -23.05 0 0 11.52 -23.06 0 0 11.53 -23.05 0 0 11.53 -23.04 0 0 11.52 -23.07 0 0 11.53 -34.58 0 0 11.53 -23.04 0 0 11.51 -23.05 0 0 11.53 -11.53 0 0 11.54 -23.05 0 0 11.51 -11.53 0 0 11.53 -11.53 0 0 23.05 -11.52 0 0 46.11 -11.53 0 0 57.63 11.53 0 0 46.11 11.52 0 0 11.52 11.53 0 0 23.05 23.04 0 0 11.53 11.54 0 0 11.53 34.58 0 0 11.52 69.15 0 0 -11.52 34.58 0 0 -11.53 23.05 0 0 -11.53 23.06 0 0 -11.52 11.52 0 0 -11.53 11.53 0 0 -11.52 23.05 0 0 23.05 11.52 0 0 23.05 92.21 0 0 -426.46 -11.52 0 0 -34.58 -11.53 0 0 -23.05 -11.53 0 0 -11.53 -11.52 0 0 -11.53 -23.05 0 0 -11.52 -23.06 0 0 -11.53 -195.93 0 0 11.53zm2236.05 0l-23.05 0 0 11.52 -11.53 0 0 11.53 -23.05 0 0 11.53 -11.53 0 0 11.52 -11.54 0 0 11.53 -11.51 0 0 11.53 -11.53 0 0 -69.16 -103.73 0 0 518.67 103.73 0 0 -368.84 11.53 0 0 -34.58 11.51 0 0 -23.04 23.07 0 0 -11.53 23.05 0 0 -11.52 57.62 0 0 11.52 23.07 0 0 11.53 23.04 0 0 23.04 11.53 0 0 46.12 11.52 0 0 357.3 92.21 0 0 -426.46 -11.53 0 0 -46.11 -11.52 0 0 -23.05 -11.53 0 0 -11.53 -11.53 0 0 -11.52 -23.04 0 0 -11.53 -115.26 0 0 11.53zm-4333.8 0l-23.05 0 0 11.52 -34.58 0 0 11.53 -11.53 0 0 11.53 -11.53 0 0 11.52 -11.51 0 0 34.58 -11.54 0 0 57.63 11.54 0 0 34.58 11.51 0 0 11.52 11.53 0 0 23.06 11.53 0 0 11.52 11.52 0 0 11.53 11.53 0 0 11.53 23.05 0 0 11.51 11.53 0 0 11.53 23.05 0 0 11.54 11.53 0 0 11.51 23.05 0 0 11.53 11.53 0 0 11.54 23.05 0 0 11.51 23.05 0 0 11.53 11.52 0 0 11.54 11.53 0 0 11.51 23.05 0 0 23.06 11.53 0 0 57.63 -11.53 0 0 23.05 -23.05 0 0 11.53 -23.05 0 0 11.52 -80.68 0 0 -11.52 -23.05 0 0 -11.53 -11.53 0 0 -11.53 -11.53 0 0 -23.05 -11.52 0 0 -46.1 -80.69 0 0 69.15 11.54 0 0 23.06 11.51 0 0 11.52 11.53 0 0 11.53 11.53 0 0 11.52 11.52 0 0 11.53 23.06 0 0 11.53 46.1 0 0 11.52 80.69 0 0 -11.52 69.15 0 0 -11.53 23.04 0 0 -11.53 23.07 0 0 -11.52 11.51 0 0 -11.53 11.54 0 0 -11.52 11.53 0 0 -11.53 11.51 0 0 -103.74 -11.51 0 0 -11.51 -11.53 0 0 -23.07 -11.54 0 0 -11.51 -11.51 0 0 -11.54 -11.53 0 0 -11.53 -11.54 0 0 -11.51 -23.04 0 0 -11.54 -11.53 0 0 -11.53 -23.05 0 0 -11.51 -11.53 0 0 -11.53 -23.04 0 0 -11.53 -23.06 0 0 -11.52 -11.52 0 0 -11.53 -23.05 0 0 -11.53 -11.53 0 0 -11.52 -11.53 0 0 -11.52 -11.52 0 0 -11.54 -11.53 0 0 -11.52 -11.53 0 0 -69.15 11.53 0 0 -11.53 23.05 0 0 -11.53 23.06 0 0 -11.52 46.1 0 0 11.52 34.57 0 0 11.53 23.06 0 0 11.53 11.52 0 0 23.05 11.53 0 0 34.58 80.69 0 0 -57.63 -11.53 0 0 -23.06 -11.54 0 0 -11.52 -11.51 0 0 -11.53 -11.53 0 0 -11.53 -23.05 0 0 -11.52 -23.06 0 0 -11.53 -161.36 0 0 11.53zm-3803.59 0l-57.64 0 0 57.63 57.64 0 0 414.94 11.51 0 0 23.05 11.53 0 0 11.52 11.54 0 0 11.53 23.04 0 0 11.53 103.74 0 0 -69.16 -34.58 0 0 -11.53 -11.53 0 0 -11.52 -11.52 0 0 -380.36 57.63 0 0 -57.63 -57.63 0 0 -149.84 -103.73 0 0 149.84zm8102.81 80.68l-23.05 0 0 11.53 -23.07 0 0 23.04 -11.51 0 0 34.58 -11.53 0 0 368.84 -103.73 0 0 -518.67 103.73 0 0 69.16 11.53 0 0 -11.53 11.51 0 0 -11.53 11.54 0 0 -11.52 11.53 0 0 -11.53 23.05 0 0 -11.53 11.53 0 0 -11.52 23.05 0 0 -11.53 115.26 0 0 11.53 23.04 0 0 11.52 11.53 0 0 11.53 11.53 0 0 23.05 11.52 0 0 46.11 11.53 0 0 426.46 -92.21 0 0 -357.3 -11.52 0 0 -46.12 -11.53 0 0 -23.04 -23.04 0 0 -11.53 -23.07 0 0 -11.52 -57.62 0 0 11.52zm34.58 -103.74l-23.05 0 0 11.53 -23.07 0 0 11.53 -11.51 0 0 11.52 -11.53 0 0 11.53 -11.54 0 0 -46.11 -149.83 0 0 576.31 149.83 0 0 -11.53 11.54 0 0 -403.41 11.53 0 0 -23.06 11.51 0 0 -11.51 34.58 0 0 -11.53 11.54 0 0 11.53 34.57 0 0 11.51 11.54 0 0 23.06 11.51 0 0 414.94 149.84 0 0 -518.67 -11.53 0 0 -11.53 -11.52 0 0 -23.05 -11.53 0 0 -11.53 -23.05 0 0 -11.53 -23.05 0 0 -11.52 -126.78 0 0 11.52zm-4287.69 69.16l-23.06 0 0 11.53 -23.05 0 0 11.53 -11.53 0 0 69.15 11.53 0 0 11.52 11.53 0 0 11.54 11.52 0 0 11.52 11.53 0 0 11.52 11.53 0 0 11.53 23.05 0 0 11.53 11.52 0 0 11.52 23.06 0 0 11.53 23.04 0 0 11.53 11.53 0 0 11.51 23.05 0 0 11.53 11.53 0 0 11.54 23.04 0 0 11.51 11.54 0 0 11.53 11.53 0 0 11.54 11.51 0 0 11.51 11.54 0 0 23.07 11.53 0 0 11.51 11.51 0 0 103.74 -11.51 0 0 11.53 -11.53 0 0 11.52 -11.54 0 0 11.53 -11.51 0 0 11.52 -23.07 0 0 11.53 -23.04 0 0 11.53 -69.15 0 0 11.52 -80.69 0 0 -11.52 -46.1 0 0 -11.53 -23.06 0 0 -11.53 -11.52 0 0 -11.52 -11.53 0 0 -11.53 -11.53 0 0 -11.52 -11.51 0 0 -23.06 -11.54 0 0 -69.15 80.69 0 0 46.1 11.52 0 0 23.05 11.53 0 0 11.53 11.53 0 0 11.53 23.05 0 0 11.52 80.68 0 0 -11.52 23.05 0 0 -11.53 23.05 0 0 -23.05 11.53 0 0 -57.63 -11.53 0 0 -23.06 -23.05 0 0 -11.51 -11.53 0 0 -11.54 -11.52 0 0 -11.53 -23.05 0 0 -11.51 -23.05 0 0 -11.54 -11.53 0 0 -11.53 -23.05 0 0 -11.51 -11.53 0 0 -11.54 -23.05 0 0 -11.53 -11.53 0 0 -11.51 -23.05 0 0 -11.53 -11.53 0 0 -11.53 -11.52 0 0 -11.52 -11.53 0 0 -23.06 -11.53 0 0 -11.52 -11.51 0 0 -34.58 -11.54 0 0 -57.63 11.54 0 0 -34.58 11.51 0 0 -11.52 11.53 0 0 -11.53 11.53 0 0 -11.53 34.58 0 0 -11.52 23.05 0 0 -11.53 161.36 0 0 11.53 23.06 0 0 11.52 23.05 0 0 11.53 11.53 0 0 11.53 11.51 0 0 11.52 11.54 0 0 23.06 11.53 0 0 57.63 -80.69 0 0 -34.58 -11.53 0 0 -23.05 -11.52 0 0 -11.53 -23.06 0 0 -11.53 -34.57 0 0 -11.52 -46.1 0 0 11.52zm34.57 -80.68l-92.21 0 0 11.52 -34.58 0 0 11.53 -23.05 0 0 11.53 -11.53 0 0 11.52 -11.51 0 0 11.53 -11.54 0 0 11.53 -11.53 0 0 11.52 -11.51 0 0 46.11 -11.54 0 0 46.1 11.54 0 0 46.1 11.51 0 0 23.06 11.53 0 0 11.52 11.54 0 0 11.53 11.51 0 0 11.53 11.53 0 0 11.51 23.05 0 0 11.53 11.53 0 0 11.54 23.05 0 0 11.51 11.53 0 0 11.53 23.05 0 0 11.54 11.53 0 0 11.51 23.05 0 0 11.53 23.05 0 0 11.54 23.06 0 0 11.51 11.52 0 0 11.53 11.52 0 0 11.53 11.53 0 0 23.05 11.53 0 0 11.53 -11.53 0 0 23.05 -11.53 0 0 11.52 -23.04 0 0 11.53 -46.11 0 0 -11.53 -23.05 0 0 -11.52 -11.53 0 0 -11.53 -11.52 0 0 -69.16 -149.85 0 0 80.69 11.54 0 0 34.58 11.51 0 0 23.05 11.53 0 0 11.52 11.54 0 0 11.53 11.51 0 0 11.53 23.06 0 0 11.52 23.05 0 0 11.53 57.63 0 0 11.52 115.26 0 0 -11.52 46.11 0 0 -11.53 34.58 0 0 -11.52 23.05 0 0 -11.53 11.53 0 0 -11.53 11.51 0 0 -11.52 11.53 0 0 -23.05 11.54 0 0 -23.06 11.51 0 0 -80.68 -11.51 0 0 -23.04 -11.54 0 0 -23.07 -11.53 0 0 -11.51 -11.51 0 0 -11.54 -11.53 0 0 -11.53 -11.54 0 0 -11.51 -11.51 0 0 -11.54 -11.53 0 0 -11.53 -23.05 0 0 -11.51 -11.53 0 0 -11.53 -23.05 0 0 -11.53 -11.53 0 0 -11.52 -23.05 0 0 -11.53 -23.05 0 0 -11.53 -11.53 0 0 -11.52 -23.05 0 0 -11.52 -11.52 0 0 -11.54 -11.53 0 0 -11.52 -11.53 0 0 -11.52 -11.52 0 0 -34.58 11.52 0 0 -11.53 11.53 0 0 -11.52 80.68 0 0 11.52 11.52 0 0 11.53 11.53 0 0 23.04 11.53 0 0 34.58 138.32 0 0 -69.15 -11.54 0 0 -34.58 -11.53 0 0 -11.52 -11.51 0 0 -23.06 -11.53 0 0 -11.52 -23.05 0 0 -11.53 -11.53 0 0 -11.53 -34.58 0 0 -11.52 -80.68 0 0 -11.53 -11.53 0 0 11.53zm-9843.24 414.94l-11.53 0 0 57.63 -11.53 0 0 46.1 -11.52 0 0 34.58 -115.26 0 0 -11.53 11.53 0 0 -46.1 11.52 0 0 -46.1 11.53 0 0 -46.11 11.53 0 0 -46.11 11.52 0 0 -34.58 11.53 0 0 -46.09 11.52 0 0 -46.11 11.52 0 0 -46.11 11.54 0 0 -34.58 11.52 0 0 -46.09 11.52 0 0 -46.11 11.53 0 0 -46.11 11.53 0 0 -46.09 11.52 0 0 -46.12 11.53 0 0 -34.57 11.53 0 0 -34.58 184.41 0 0 23.05 11.53 0 0 46.1 11.52 0 0 46.12 11.53 0 0 34.57 11.53 0 0 46.1 11.52 0 0 46.11 11.53 0 0 46.11 11.52 0 0 34.57 11.53 0 0 46.1 11.53 0 0 46.11 11.52 0 0 46.11 11.53 0 0 46.09 11.52 0 0 34.58 11.53 0 0 46.11 11.53 0 0 46.1 11.51 0 0 46.11 11.54 0 0 23.05 -126.79 0 0 -57.63 -11.52 0 0 -46.1 -11.53 0 0 -57.64 -11.53 0 0 -23.05 -242.04 0 0 46.11zm11.52 -564.78l-11.52 0 0 46.11 -11.53 0 0 46.1 -11.53 0 0 46.1 -11.52 0 0 34.58 -11.52 0 0 46.11 -11.54 0 0 46.1 -11.52 0 0 46.11 -11.52 0 0 34.58 -11.53 0 0 46.1 -11.52 0 0 46.09 -11.53 0 0 46.11 -11.53 0 0 46.12 -11.52 0 0 34.57 -11.53 0 0 46.1 -11.53 0 0 46.11 -11.52 0 0 46.1 -11.53 0 0 34.58 172.89 0 0 -34.58 11.53 0 0 -46.1 11.52 0 0 -57.63 11.53 0 0 -46.11 11.53 0 0 -11.53 184.41 0 0 34.58 11.53 0 0 57.63 11.52 0 0 46.11 11.53 0 0 46.1 11.53 0 0 11.53 172.89 0 0 -57.63 -11.54 0 0 -34.58 -11.51 0 0 -46.1 -11.53 0 0 -46.11 -11.54 0 0 -34.58 -11.51 0 0 -46.11 -11.53 0 0 -46.09 -11.53 0 0 -46.11 -11.52 0 0 -34.57 -11.53 0 0 -46.12 -11.52 0 0 -46.09 -11.53 0 0 -46.11 -11.53 0 0 -34.58 -11.52 0 0 -46.11 -11.53 0 0 -46.09 -11.52 0 0 -46.11 -11.53 0 0 -34.58 -11.53 0 0 -23.04 -230.52 0 0 23.04zm4068.7 184.42l-69.16 0 0 46.1 11.53 0 0 11.53 57.63 0 0 426.46 11.53 0 0 23.05 11.51 0 0 11.53 34.58 0 0 11.53 92.23 0 0 -11.53 11.51 0 0 -57.63 -34.58 0 0 -11.53 -11.51 0 0 -11.52 -11.54 0 0 -11.53 -11.53 0 0 -368.83 57.65 0 0 -11.53 11.51 0 0 -46.1 -69.16 0 0 -149.84 -92.2 0 0 149.84zm7826.18 46.1l-23.04 0 0 11.53 -11.54 0 0 11.53 -11.51 0 0 23.05 -11.53 0 0 34.58 -92.21 0 0 -46.11 11.52 0 0 -23.05 11.53 0 0 -23.05 11.53 0 0 -11.53 11.51 0 0 -11.53 34.58 0 0 -11.52 23.07 0 0 -11.53 195.93 0 0 11.53 23.06 0 0 11.52 23.05 0 0 11.53 11.52 0 0 11.53 11.53 0 0 23.05 11.53 0 0 34.58 11.52 0 0 426.46 -92.21 0 0 -23.05 -11.52 0 0 -23.05 -23.05 0 0 11.52 -11.53 0 0 11.53 -11.52 0 0 11.52 -23.06 0 0 11.53 -23.05 0 0 11.53 -34.58 0 0 11.52 -69.15 0 0 -11.52 -34.58 0 0 -11.53 -11.54 0 0 -11.53 -23.04 0 0 -23.05 -11.53 0 0 -11.52 -11.52 0 0 -46.11 -11.53 0 0 -57.63 11.53 0 0 -46.11 11.52 0 0 -23.05 11.53 0 0 -11.53 11.53 0 0 -11.51 23.05 0 0 -11.54 11.53 0 0 -11.53 23.05 0 0 -11.51 23.04 0 0 -11.53 34.58 0 0 -11.53 23.07 0 0 -11.52 23.04 0 0 -11.53 23.05 0 0 -11.53 23.06 0 0 -11.52 23.05 0 0 -11.52 11.53 0 0 -11.54 11.52 0 0 -80.67 -11.52 0 0 -11.53 -11.53 0 0 -11.53 -23.05 0 0 -11.52 -92.22 0 0 11.52zm-57.62 -69.16l-34.58 0 0 11.53 -23.05 0 0 11.53 -11.53 0 0 11.52 -11.53 0 0 11.53 -11.52 0 0 11.53 -11.53 0 0 11.52 -11.52 0 0 34.58 -11.53 0 0 69.15 149.83 0 0 -23.04 11.54 0 0 -34.58 11.53 0 0 -23.05 34.58 0 0 -11.53 57.62 0 0 11.53 23.05 0 0 23.05 11.53 0 0 34.58 -11.53 0 0 23.04 -23.05 0 0 11.54 -11.53 0 0 11.52 -23.05 0 0 11.52 -34.58 0 0 11.53 -23.04 0 0 11.53 -23.07 0 0 11.52 -34.58 0 0 11.53 -23.04 0 0 11.53 -11.54 0 0 11.51 -23.04 0 0 11.53 -11.53 0 0 11.54 -11.52 0 0 11.51 -11.53 0 0 11.53 -11.52 0 0 23.05 -11.53 0 0 57.64 -11.52 0 0 46.1 11.52 0 0 46.11 11.53 0 0 23.05 11.52 0 0 11.52 11.53 0 0 11.53 11.52 0 0 11.53 11.53 0 0 11.52 23.04 0 0 11.53 34.58 0 0 11.52 80.69 0 0 -11.52 46.12 0 0 -11.53 23.04 0 0 -11.52 11.53 0 0 -11.53 11.52 0 0 -11.53 23.06 0 0 34.58 11.52 0 0 11.53 149.84 0 0 -34.58 -11.53 0 0 -380.36 -11.52 0 0 -80.68 -11.53 0 0 -23.05 -11.53 0 0 -11.53 -11.52 0 0 -11.53 -11.53 0 0 -11.52 -11.53 0 0 -11.53 -23.05 0 0 -11.53 -34.58 0 0 -11.52 -207.46 0 0 11.52zm-9509 23.06l-23.04 0 0 11.52 -23.07 0 0 11.53 -11.51 0 0 11.53 -11.53 0 0 11.52 -11.54 0 0 11.53 -11.51 0 0 23.05 -11.53 0 0 11.53 -11.54 0 0 11.53 -11.51 0 0 11.51 -11.53 0 0 -115.25 -92.21 0 0 518.67 103.74 0 0 -334.26 11.51 0 0 -34.58 11.54 0 0 -11.52 11.53 0 0 -11.52 11.51 0 0 -11.54 23.07 0 0 -11.51 69.16 0 0 -11.53 11.51 0 0 -103.74 -23.05 0 0 11.53zm1671.28 0l69.16 0 0 -149.84 92.2 0 0 149.84 69.16 0 0 46.1 -11.51 0 0 11.53 -57.65 0 0 368.83 11.53 0 0 11.53 11.54 0 0 11.52 11.51 0 0 11.53 34.58 0 0 57.63 -11.51 0 0 11.53 -92.23 0 0 -11.53 -34.58 0 0 -11.53 -11.51 0 0 -23.05 -11.53 0 0 -426.46 -57.63 0 0 -11.53 -11.53 0 0 -46.1zm34.58 -23.06l-57.63 0 0 103.74 57.63 0 0 403.41 11.53 0 0 23.05 11.51 0 0 11.53 11.54 0 0 11.53 11.53 0 0 11.52 34.58 0 0 11.53 138.31 0 0 -115.26 -46.11 0 0 -11.53 -11.53 0 0 -345.78 57.64 0 0 -103.74 -57.64 0 0 -161.36 -161.36 0 0 161.36zm1855.69 23.06l57.64 0 0 -149.84 103.73 0 0 149.84 57.63 0 0 57.63 -57.63 0 0 380.36 11.52 0 0 11.52 11.53 0 0 11.53 34.58 0 0 69.16 -103.74 0 0 -11.53 -23.04 0 0 -11.53 -11.54 0 0 -11.52 -11.53 0 0 -23.05 -11.51 0 0 -414.94 -57.64 0 0 -57.63zm34.57 -172.89l-11.51 0 0 149.83 -57.64 0 0 103.74 57.64 0 0 368.83 11.51 0 0 46.11 11.53 0 0 23.05 11.54 0 0 11.53 23.04 0 0 11.52 23.05 0 0 11.53 138.32 0 0 -11.53 11.53 0 0 -103.73 -57.63 0 0 -23.05 -11.53 0 0 -334.26 57.63 0 0 -11.52 11.53 0 0 -92.22 -69.16 0 0 -161.36 -149.85 0 0 11.53zm1890.28 691.56l103.74 0 0 -518.67 -103.74 0 0 518.67zm-5474.86 -414.93l-69.16 0 0 11.51 -23.07 0 0 11.54 -11.51 0 0 11.52 -11.53 0 0 11.52 -11.54 0 0 34.58 -11.51 0 0 334.26 -103.74 0 0 -518.67 92.21 0 0 115.25 11.53 0 0 -11.51 11.51 0 0 -11.53 11.54 0 0 -11.53 11.53 0 0 -23.05 11.51 0 0 -11.53 11.54 0 0 -11.52 11.53 0 0 -11.53 11.51 0 0 -11.53 23.07 0 0 -11.52 23.04 0 0 -11.53 23.05 0 0 103.74 -11.51 0 0 11.53zm-23.07 -126.8l-23.05 0 0 11.53 -23.04 0 0 11.53 -11.53 0 0 11.52 -11.54 0 0 11.53 -11.51 0 0 23.05 -11.53 0 0 11.53 -11.54 0 0 -80.69 -149.82 0 0 564.78 11.52 0 0 11.53 149.84 0 0 -11.53 11.53 0 0 -368.83 11.51 0 0 -23.06 11.54 0 0 -11.52 23.04 0 0 -11.52 92.23 0 0 -161.37 -57.65 0 0 11.52zm5497.93 23.06l103.74 0 0 518.67 -103.74 0 0 -518.67zm-23.04 553.25l149.83 0 0 -11.53 11.53 0 0 -564.78 -161.36 0 0 576.31zm-7745.51 -334.26l11.53 0 0 -46.1 11.51 0 0 -46.1 11.53 0 0 -46.11 11.54 0 0 -57.63 11.51 0 0 -57.63 11.53 0 0 34.58 11.54 0 0 46.1 11.51 0 0 46.11 11.53 0 0 46.1 11.54 0 0 46.1 11.51 0 0 57.64 -126.78 0 0 -23.06zm57.62 -299.68l-11.51 0 0 46.11 -11.54 0 0 46.1 -11.53 0 0 46.11 -11.51 0 0 46.11 -11.53 0 0 46.09 -11.54 0 0 46.11 -11.51 0 0 46.11 -11.53 0 0 23.04 207.47 0 0 -11.53 -11.53 0 0 -46.09 -11.52 0 0 -46.1 -11.53 0 0 -46.12 -11.53 0 0 -34.57 -11.51 0 0 -46.1 -11.54 0 0 -46.11 -11.53 0 0 -46.11 -11.51 0 0 -46.09 -23.07 0 0 23.04zm11894.89 484.1l-11.52 0 0 23.05 -23.06 0 0 11.53 -69.16 0 0 -11.53 -11.51 0 0 -11.52 -11.53 0 0 -69.15 11.53 0 0 -23.07 11.51 0 0 -11.51 23.07 0 0 -11.54 11.51 0 0 -11.53 23.07 0 0 -11.51 23.04 0 0 -11.54 23.05 0 0 -11.53 11.53 0 0 126.8 -11.53 0 0 23.05zm34.58 -184.42l-23.05 0 0 11.53 -23.05 0 0 11.53 -23.06 0 0 11.51 -23.05 0 0 11.53 -23.04 0 0 11.54 -11.54 0 0 11.51 -23.04 0 0 11.53 -11.53 0 0 11.54 -11.54 0 0 11.51 -11.51 0 0 46.11 -11.53 0 0 46.11 11.53 0 0 23.05 11.51 0 0 11.52 23.07 0 0 11.53 92.2 0 0 -11.53 23.05 0 0 -11.52 11.53 0 0 -11.53 11.53 0 0 -23.05 11.52 0 0 -57.62 11.52 0 0 -138.32 -11.52 0 0 11.52zm-4218.54 -403.41l103.74 0 0 69.15 -103.74 0 0 -69.15zm-23.04 92.21l161.36 0 0 -115.25 -161.36 0 0 115.25zm23.04 -23.06l103.74 0 0 -69.15 -103.74 0 0 69.15z"/>
  <polygon class="fil0" points="26566.52,27232.65 26635.67,27232.65 26635.67,27221.12 26647.2,27221.12 26647.2,27209.59 26658.72,27209.59 26658.72,26863.81 26647.2,26863.81 26647.2,26852.29 26635.67,26852.29 26635.67,26840.76 26566.52,26840.76 "/>
 </g>
</svg>
